solid 
 facet normal -1.000000e+00  0.000000e+00  0.000000e+00
   outer loop
     vertex  0.000000e+00  0.000000e+00  2.000000e+00
     vertex  0.000000e+00  4.500000e+01  0.000000e+00
     vertex  0.000000e+00  0.000000e+00  0.000000e+00
   endloop
 endfacet
 facet normal -1.000000e+00  0.000000e+00  0.000000e+00
   outer loop
     vertex  0.000000e+00  0.000000e+00  2.000000e+00
     vertex  0.000000e+00  4.500000e+01  2.000000e+00
     vertex  0.000000e+00  4.500000e+01  0.000000e+00
   endloop
 endfacet
 facet normal  0.000000e+00 -1.000000e+00 -0.000000e+00
   outer loop
     vertex  6.000000e+01  0.000000e+00  2.000000e+00
     vertex  0.000000e+00  0.000000e+00  0.000000e+00
     vertex  6.000000e+01  0.000000e+00  0.000000e+00
   endloop
 endfacet
 facet normal -0.000000e+00 -1.000000e+00  0.000000e+00
   outer loop
     vertex  6.000000e+01  0.000000e+00  2.000000e+00
     vertex  0.000000e+00  0.000000e+00  2.000000e+00
     vertex  0.000000e+00  0.000000e+00  0.000000e+00
   endloop
 endfacet
 facet normal  0.000000e+00  0.000000e+00  1.000000e+00
   outer loop
     vertex  6.597805e+00  4.426146e+00  2.000000e+00
     vertex  6.442440e+00  4.576800e+00  2.000000e+00
     vertex  0.000000e+00  0.000000e+00  2.000000e+00
   endloop
 endfacet
 facet normal  0.000000e+00  0.000000e+00  1.000000e+00
   outer loop
     vertex  6.293740e+00  4.734036e+00  2.000000e+00
     vertex  0.000000e+00  0.000000e+00  2.000000e+00
     vertex  6.442440e+00  4.576800e+00  2.000000e+00
   endloop
 endfacet
 facet normal  0.000000e+00  0.000000e+00  1.000000e+00
   outer loop
     vertex  6.759543e+00  4.282357e+00  2.000000e+00
     vertex  6.597805e+00  4.426146e+00  2.000000e+00
     vertex  0.000000e+00  0.000000e+00  2.000000e+00
   endloop
 endfacet
 facet normal  0.000000e+00  0.000000e+00  1.000000e+00
   outer loop
     vertex  6.151983e+00  4.897558e+00  2.000000e+00
     vertex  0.000000e+00  0.000000e+00  2.000000e+00
     vertex  6.293740e+00  4.734036e+00  2.000000e+00
   endloop
 endfacet
 facet normal  0.000000e+00  0.000000e+00  1.000000e+00
   outer loop
     vertex  6.927352e+00  4.145701e+00  2.000000e+00
     vertex  6.759543e+00  4.282357e+00  2.000000e+00
     vertex  0.000000e+00  0.000000e+00  2.000000e+00
   endloop
 endfacet
 facet normal  0.000000e+00  0.000000e+00  1.000000e+00
   outer loop
     vertex  6.017435e+00  5.067062e+00  2.000000e+00
     vertex  0.000000e+00  0.000000e+00  2.000000e+00
     vertex  6.151983e+00  4.897558e+00  2.000000e+00
   endloop
 endfacet
 facet normal  0.000000e+00  0.000000e+00  1.000000e+00
   outer loop
     vertex  7.100918e+00  4.016434e+00  2.000000e+00
     vertex  6.927352e+00  4.145701e+00  2.000000e+00
     vertex  0.000000e+00  0.000000e+00  2.000000e+00
   endloop
 endfacet
 facet normal  0.000000e+00  0.000000e+00  1.000000e+00
   outer loop
     vertex  5.890348e+00  5.242230e+00  2.000000e+00
     vertex  0.000000e+00  0.000000e+00  2.000000e+00
     vertex  6.017435e+00  5.067062e+00  2.000000e+00
   endloop
 endfacet
 facet normal  0.000000e+00  0.000000e+00  1.000000e+00
   outer loop
     vertex  7.279914e+00  3.894800e+00  2.000000e+00
     vertex  7.100918e+00  4.016434e+00  2.000000e+00
     vertex  0.000000e+00  0.000000e+00  2.000000e+00
   endloop
 endfacet
 facet normal  0.000000e+00  0.000000e+00  1.000000e+00
   outer loop
     vertex  5.770960e+00  5.422732e+00  2.000000e+00
     vertex  0.000000e+00  0.000000e+00  2.000000e+00
     vertex  5.890348e+00  5.242230e+00  2.000000e+00
   endloop
 endfacet
 facet normal  0.000000e+00  0.000000e+00  1.000000e+00
   outer loop
     vertex  7.464006e+00  3.781024e+00  2.000000e+00
     vertex  7.279914e+00  3.894800e+00  2.000000e+00
     vertex  0.000000e+00  0.000000e+00  2.000000e+00
   endloop
 endfacet
 facet normal  0.000000e+00  0.000000e+00  1.000000e+00
   outer loop
     vertex  5.659495e+00  5.608232e+00  2.000000e+00
     vertex  0.000000e+00  0.000000e+00  2.000000e+00
     vertex  5.770960e+00  5.422732e+00  2.000000e+00
   endloop
 endfacet
 facet normal  0.000000e+00  0.000000e+00  1.000000e+00
   outer loop
     vertex  7.652849e+00  3.675322e+00  2.000000e+00
     vertex  7.464006e+00  3.781024e+00  2.000000e+00
     vertex  0.000000e+00  0.000000e+00  2.000000e+00
   endloop
 endfacet
 facet normal  0.000000e+00  0.000000e+00  1.000000e+00
   outer loop
     vertex  5.556161e+00  5.798382e+00  2.000000e+00
     vertex  0.000000e+00  0.000000e+00  2.000000e+00
     vertex  5.659495e+00  5.608232e+00  2.000000e+00
   endloop
 endfacet
 facet normal  0.000000e+00  0.000000e+00  1.000000e+00
   outer loop
     vertex  7.846089e+00  3.577890e+00  2.000000e+00
     vertex  7.652849e+00  3.675322e+00  2.000000e+00
     vertex  0.000000e+00  0.000000e+00  2.000000e+00
   endloop
 endfacet
 facet normal  0.000000e+00  0.000000e+00  1.000000e+00
   outer loop
     vertex  5.461152e+00  5.992824e+00  2.000000e+00
     vertex  0.000000e+00  0.000000e+00  2.000000e+00
     vertex  5.556161e+00  5.798382e+00  2.000000e+00
   endloop
 endfacet
 facet normal  0.000000e+00  0.000000e+00  1.000000e+00
   outer loop
     vertex  8.043365e+00  3.488912e+00  2.000000e+00
     vertex  7.846089e+00  3.577890e+00  2.000000e+00
     vertex  0.000000e+00  0.000000e+00  2.000000e+00
   endloop
 endfacet
 facet normal  0.000000e+00  0.000000e+00  1.000000e+00
   outer loop
     vertex  5.374646e+00  6.191196e+00  2.000000e+00
     vertex  0.000000e+00  0.000000e+00  2.000000e+00
     vertex  5.461152e+00  5.992824e+00  2.000000e+00
   endloop
 endfacet
 facet normal  0.000000e+00  0.000000e+00  1.000000e+00
   outer loop
     vertex  8.244306e+00  3.408553e+00  2.000000e+00
     vertex  8.043365e+00  3.488912e+00  2.000000e+00
     vertex  0.000000e+00  0.000000e+00  2.000000e+00
   endloop
 endfacet
 facet normal  0.000000e+00  0.000000e+00  1.000000e+00
   outer loop
     vertex  5.296805e+00  6.393126e+00  2.000000e+00
     vertex  0.000000e+00  0.000000e+00  2.000000e+00
     vertex  5.374646e+00  6.191196e+00  2.000000e+00
   endloop
 endfacet
 facet normal  0.000000e+00  0.000000e+00  1.000000e+00
   outer loop
     vertex  8.448535e+00  3.336965e+00  2.000000e+00
     vertex  8.244306e+00  3.408553e+00  2.000000e+00
     vertex  0.000000e+00  0.000000e+00  2.000000e+00
   endloop
 endfacet
 facet normal  0.000000e+00  0.000000e+00  1.000000e+00
   outer loop
     vertex  5.227775e+00  6.598235e+00  2.000000e+00
     vertex  0.000000e+00  0.000000e+00  2.000000e+00
     vertex  5.296805e+00  6.393126e+00  2.000000e+00
   endloop
 endfacet
 facet normal  0.000000e+00  0.000000e+00  1.000000e+00
   outer loop
     vertex  8.655672e+00  3.274281e+00  2.000000e+00
     vertex  8.448535e+00  3.336965e+00  2.000000e+00
     vertex  0.000000e+00  0.000000e+00  2.000000e+00
   endloop
 endfacet
 facet normal  0.000000e+00  0.000000e+00  1.000000e+00
   outer loop
     vertex  5.167686e+00  6.806138e+00  2.000000e+00
     vertex  0.000000e+00  0.000000e+00  2.000000e+00
     vertex  5.227775e+00  6.598235e+00  2.000000e+00
   endloop
 endfacet
 facet normal  0.000000e+00  0.000000e+00  1.000000e+00
   outer loop
     vertex  8.865327e+00  3.220620e+00  2.000000e+00
     vertex  8.655672e+00  3.274281e+00  2.000000e+00
     vertex  0.000000e+00  0.000000e+00  2.000000e+00
   endloop
 endfacet
 facet normal  0.000000e+00  0.000000e+00  1.000000e+00
   outer loop
     vertex  5.116649e+00  7.016448e+00  2.000000e+00
     vertex  0.000000e+00  0.000000e+00  2.000000e+00
     vertex  5.167686e+00  6.806138e+00  2.000000e+00
   endloop
 endfacet
 facet normal  0.000000e+00  0.000000e+00  1.000000e+00
   outer loop
     vertex  9.077107e+00  3.176081e+00  2.000000e+00
     vertex  8.865327e+00  3.220620e+00  2.000000e+00
     vertex  0.000000e+00  0.000000e+00  2.000000e+00
   endloop
 endfacet
 facet normal  0.000000e+00  0.000000e+00  1.000000e+00
   outer loop
     vertex  5.074760e+00  7.228768e+00  2.000000e+00
     vertex  0.000000e+00  0.000000e+00  2.000000e+00
     vertex  5.116649e+00  7.016448e+00  2.000000e+00
   endloop
 endfacet
 facet normal  0.000000e+00  0.000000e+00  1.000000e+00
   outer loop
     vertex  9.290617e+00  3.140748e+00  2.000000e+00
     vertex  9.077107e+00  3.176081e+00  2.000000e+00
     vertex  0.000000e+00  0.000000e+00  2.000000e+00
   endloop
 endfacet
 facet normal  0.000000e+00  0.000000e+00  1.000000e+00
   outer loop
     vertex  5.042099e+00  7.442703e+00  2.000000e+00
     vertex  0.000000e+00  0.000000e+00  2.000000e+00
     vertex  5.074760e+00  7.228768e+00  2.000000e+00
   endloop
 endfacet
 facet normal  0.000000e+00  0.000000e+00  1.000000e+00
   outer loop
     vertex  9.505455e+00  3.114688e+00  2.000000e+00
     vertex  9.290617e+00  3.140748e+00  2.000000e+00
     vertex  0.000000e+00  0.000000e+00  2.000000e+00
   endloop
 endfacet
 facet normal  0.000000e+00  0.000000e+00  1.000000e+00
   outer loop
     vertex  5.018725e+00  7.657850e+00  2.000000e+00
     vertex  0.000000e+00  0.000000e+00  2.000000e+00
     vertex  5.042099e+00  7.442703e+00  2.000000e+00
   endloop
 endfacet
 facet normal  0.000000e+00  0.000000e+00  1.000000e+00
   outer loop
     vertex  9.721220e+00  3.097948e+00  2.000000e+00
     vertex  9.505455e+00  3.114688e+00  2.000000e+00
     vertex  0.000000e+00  0.000000e+00  2.000000e+00
   endloop
 endfacet
 facet normal  0.000000e+00  0.000000e+00  1.000000e+00
   outer loop
     vertex  5.004683e+00  7.873807e+00  2.000000e+00
     vertex  0.000000e+00  0.000000e+00  2.000000e+00
     vertex  5.018725e+00  7.657850e+00  2.000000e+00
   endloop
 endfacet
 facet normal  0.000000e+00  0.000000e+00  1.000000e+00
   outer loop
     vertex  9.937507e+00  3.090560e+00  2.000000e+00
     vertex  9.721220e+00  3.097948e+00  2.000000e+00
     vertex  0.000000e+00  0.000000e+00  2.000000e+00
   endloop
 endfacet
 facet normal  0.000000e+00  0.000000e+00  1.000000e+00
   outer loop
     vertex  5.000000e+00  8.090170e+00  2.000000e+00
     vertex  0.000000e+00  0.000000e+00  2.000000e+00
     vertex  5.004683e+00  7.873807e+00  2.000000e+00
   endloop
 endfacet
 facet normal  0.000000e+00  0.000000e+00  1.000000e+00
   outer loop
     vertex  1.015391e+01  3.092539e+00  2.000000e+00
     vertex  9.937507e+00  3.090560e+00  2.000000e+00
     vertex  0.000000e+00  0.000000e+00  2.000000e+00
   endloop
 endfacet
 facet normal  0.000000e+00  0.000000e+00  1.000000e+00
   outer loop
     vertex  1.037003e+01  3.103881e+00  2.000000e+00
     vertex  1.015391e+01  3.092539e+00  2.000000e+00
     vertex  0.000000e+00  0.000000e+00  2.000000e+00
   endloop
 endfacet
 facet normal  0.000000e+00  0.000000e+00  1.000000e+00
   outer loop
     vertex  1.058545e+01  3.124563e+00  2.000000e+00
     vertex  1.037003e+01  3.103881e+00  2.000000e+00
     vertex  0.000000e+00  0.000000e+00  2.000000e+00
   endloop
 endfacet
 facet normal  0.000000e+00  0.000000e+00  1.000000e+00
   outer loop
     vertex  1.079978e+01  3.154549e+00  2.000000e+00
     vertex  1.058545e+01  3.124563e+00  2.000000e+00
     vertex  0.000000e+00  0.000000e+00  2.000000e+00
   endloop
 endfacet
 facet normal  0.000000e+00  0.000000e+00  1.000000e+00
   outer loop
     vertex  1.101260e+01  3.193780e+00  2.000000e+00
     vertex  1.079978e+01  3.154549e+00  2.000000e+00
     vertex  0.000000e+00  0.000000e+00  2.000000e+00
   endloop
 endfacet
 facet normal  0.000000e+00  0.000000e+00  1.000000e+00
   outer loop
     vertex  0.000000e+00  4.500000e+01  2.000000e+00
     vertex  0.000000e+00  0.000000e+00  2.000000e+00
     vertex  5.000000e+00  8.090170e+00  2.000000e+00
   endloop
 endfacet
 facet normal  0.000000e+00  0.000000e+00  1.000000e+00
   outer loop
     vertex  0.000000e+00  4.500000e+01  2.000000e+00
     vertex  5.000000e+00  8.090170e+00  2.000000e+00
     vertex  5.000000e+00  3.900000e+01  2.000000e+00
   endloop
 endfacet
 facet normal  0.000000e+00  0.000000e+00  1.000000e+00
   outer loop
     vertex  6.000000e+01  0.000000e+00  2.000000e+00
     vertex  3.100000e+01  1.300000e+01  2.000000e+00
     vertex  1.223607e+01  3.618034e+00  2.000000e+00
   endloop
 endfacet
 facet normal  0.000000e+00  0.000000e+00  1.000000e+00
   outer loop
     vertex  6.000000e+01  0.000000e+00  2.000000e+00
     vertex  1.223607e+01  3.618034e+00  2.000000e+00
     vertex  1.204045e+01  3.525463e+00  2.000000e+00
   endloop
 endfacet
 facet normal  0.000000e+00  0.000000e+00  1.000000e+00
   outer loop
     vertex  6.000000e+01  0.000000e+00  2.000000e+00
     vertex  1.204045e+01  3.525463e+00  2.000000e+00
     vertex  1.184102e+01  3.441443e+00  2.000000e+00
   endloop
 endfacet
 facet normal  0.000000e+00  0.000000e+00  1.000000e+00
   outer loop
     vertex  6.000000e+01  0.000000e+00  2.000000e+00
     vertex  1.184102e+01  3.441443e+00  2.000000e+00
     vertex  1.163813e+01  3.366132e+00  2.000000e+00
   endloop
 endfacet
 facet normal  0.000000e+00  0.000000e+00  1.000000e+00
   outer loop
     vertex  6.000000e+01  0.000000e+00  2.000000e+00
     vertex  1.163813e+01  3.366132e+00  2.000000e+00
     vertex  1.143217e+01  3.299671e+00  2.000000e+00
   endloop
 endfacet
 facet normal  0.000000e+00  0.000000e+00  1.000000e+00
   outer loop
     vertex  6.000000e+01  0.000000e+00  2.000000e+00
     vertex  1.143217e+01  3.299671e+00  2.000000e+00
     vertex  1.122353e+01  3.242184e+00  2.000000e+00
   endloop
 endfacet
 facet normal  0.000000e+00  0.000000e+00  1.000000e+00
   outer loop
     vertex  6.000000e+01  0.000000e+00  2.000000e+00
     vertex  1.122353e+01  3.242184e+00  2.000000e+00
     vertex  1.101260e+01  3.193780e+00  2.000000e+00
   endloop
 endfacet
 facet normal  0.000000e+00  0.000000e+00  1.000000e+00
   outer loop
     vertex  6.000000e+01  0.000000e+00  2.000000e+00
     vertex  1.101260e+01  3.193780e+00  2.000000e+00
     vertex  0.000000e+00  0.000000e+00  2.000000e+00
   endloop
 endfacet
 facet normal  0.000000e+00  0.000000e+00  1.000000e+00
   outer loop
     vertex  6.000000e+01  1.300000e+01  2.000000e+00
     vertex  3.100000e+01  1.300000e+01  2.000000e+00
     vertex  6.000000e+01  0.000000e+00  2.000000e+00
   endloop
 endfacet
 facet normal  0.000000e+00  0.000000e+00  1.000000e+00
   outer loop
     vertex  6.000000e+01  4.500000e+01  2.000000e+00
     vertex  0.000000e+00  4.500000e+01  2.000000e+00
     vertex  5.000000e+00  3.900000e+01  2.000000e+00
   endloop
 endfacet
 facet normal  0.000000e+00  0.000000e+00  1.000000e+00
   outer loop
     vertex  6.000000e+01  4.500000e+01  2.000000e+00
     vertex  5.000000e+00  3.900000e+01  2.000000e+00
     vertex  6.000000e+01  3.900000e+01  2.000000e+00
   endloop
 endfacet
 facet normal  0.000000e+00  1.000000e+00  0.000000e+00
   outer loop
     vertex  6.000000e+01  4.500000e+01  2.000000e+00
     vertex  6.000000e+01  4.500000e+01  0.000000e+00
     vertex  0.000000e+00  4.500000e+01  0.000000e+00
   endloop
 endfacet
 facet normal  0.000000e+00  1.000000e+00  0.000000e+00
   outer loop
     vertex  6.000000e+01  4.500000e+01  2.000000e+00
     vertex  0.000000e+00  4.500000e+01  0.000000e+00
     vertex  0.000000e+00  4.500000e+01  2.000000e+00
   endloop
 endfacet
 facet normal -0.000000e+00  0.000000e+00 -1.000000e+00
   outer loop
     vertex  6.597805e+00  4.426146e+00  0.000000e+00
     vertex  0.000000e+00  0.000000e+00  0.000000e+00
     vertex  6.442440e+00  4.576800e+00  0.000000e+00
   endloop
 endfacet
 facet normal  0.000000e+00 -0.000000e+00 -1.000000e+00
   outer loop
     vertex  6.293740e+00  4.734036e+00  0.000000e+00
     vertex  6.442440e+00  4.576800e+00  0.000000e+00
     vertex  0.000000e+00  0.000000e+00  0.000000e+00
   endloop
 endfacet
 facet normal -0.000000e+00  0.000000e+00 -1.000000e+00
   outer loop
     vertex  6.759543e+00  4.282357e+00  0.000000e+00
     vertex  0.000000e+00  0.000000e+00  0.000000e+00
     vertex  6.597805e+00  4.426146e+00  0.000000e+00
   endloop
 endfacet
 facet normal  0.000000e+00 -0.000000e+00 -1.000000e+00
   outer loop
     vertex  6.151983e+00  4.897558e+00  0.000000e+00
     vertex  6.293740e+00  4.734036e+00  0.000000e+00
     vertex  0.000000e+00  0.000000e+00  0.000000e+00
   endloop
 endfacet
 facet normal -0.000000e+00  0.000000e+00 -1.000000e+00
   outer loop
     vertex  6.927352e+00  4.145701e+00  0.000000e+00
     vertex  0.000000e+00  0.000000e+00  0.000000e+00
     vertex  6.759543e+00  4.282357e+00  0.000000e+00
   endloop
 endfacet
 facet normal  0.000000e+00 -0.000000e+00 -1.000000e+00
   outer loop
     vertex  6.017435e+00  5.067062e+00  0.000000e+00
     vertex  6.151983e+00  4.897558e+00  0.000000e+00
     vertex  0.000000e+00  0.000000e+00  0.000000e+00
   endloop
 endfacet
 facet normal -0.000000e+00  0.000000e+00 -1.000000e+00
   outer loop
     vertex  7.100918e+00  4.016434e+00  0.000000e+00
     vertex  0.000000e+00  0.000000e+00  0.000000e+00
     vertex  6.927352e+00  4.145701e+00  0.000000e+00
   endloop
 endfacet
 facet normal  0.000000e+00 -0.000000e+00 -1.000000e+00
   outer loop
     vertex  5.890348e+00  5.242230e+00  0.000000e+00
     vertex  6.017435e+00  5.067062e+00  0.000000e+00
     vertex  0.000000e+00  0.000000e+00  0.000000e+00
   endloop
 endfacet
 facet normal -0.000000e+00  0.000000e+00 -1.000000e+00
   outer loop
     vertex  7.279914e+00  3.894800e+00  0.000000e+00
     vertex  0.000000e+00  0.000000e+00  0.000000e+00
     vertex  7.100918e+00  4.016434e+00  0.000000e+00
   endloop
 endfacet
 facet normal  0.000000e+00 -0.000000e+00 -1.000000e+00
   outer loop
     vertex  5.770960e+00  5.422732e+00  0.000000e+00
     vertex  5.890348e+00  5.242230e+00  0.000000e+00
     vertex  0.000000e+00  0.000000e+00  0.000000e+00
   endloop
 endfacet
 facet normal -0.000000e+00  0.000000e+00 -1.000000e+00
   outer loop
     vertex  7.464006e+00  3.781024e+00  0.000000e+00
     vertex  0.000000e+00  0.000000e+00  0.000000e+00
     vertex  7.279914e+00  3.894800e+00  0.000000e+00
   endloop
 endfacet
 facet normal  0.000000e+00 -0.000000e+00 -1.000000e+00
   outer loop
     vertex  5.659495e+00  5.608232e+00  0.000000e+00
     vertex  5.770960e+00  5.422732e+00  0.000000e+00
     vertex  0.000000e+00  0.000000e+00  0.000000e+00
   endloop
 endfacet
 facet normal -0.000000e+00  0.000000e+00 -1.000000e+00
   outer loop
     vertex  7.652849e+00  3.675322e+00  0.000000e+00
     vertex  0.000000e+00  0.000000e+00  0.000000e+00
     vertex  7.464006e+00  3.781024e+00  0.000000e+00
   endloop
 endfacet
 facet normal  0.000000e+00 -0.000000e+00 -1.000000e+00
   outer loop
     vertex  5.556161e+00  5.798382e+00  0.000000e+00
     vertex  5.659495e+00  5.608232e+00  0.000000e+00
     vertex  0.000000e+00  0.000000e+00  0.000000e+00
   endloop
 endfacet
 facet normal -0.000000e+00  0.000000e+00 -1.000000e+00
   outer loop
     vertex  7.846089e+00  3.577890e+00  0.000000e+00
     vertex  0.000000e+00  0.000000e+00  0.000000e+00
     vertex  7.652849e+00  3.675322e+00  0.000000e+00
   endloop
 endfacet
 facet normal  0.000000e+00 -0.000000e+00 -1.000000e+00
   outer loop
     vertex  5.461152e+00  5.992824e+00  0.000000e+00
     vertex  5.556161e+00  5.798382e+00  0.000000e+00
     vertex  0.000000e+00  0.000000e+00  0.000000e+00
   endloop
 endfacet
 facet normal -0.000000e+00  0.000000e+00 -1.000000e+00
   outer loop
     vertex  8.043365e+00  3.488912e+00  0.000000e+00
     vertex  0.000000e+00  0.000000e+00  0.000000e+00
     vertex  7.846089e+00  3.577890e+00  0.000000e+00
   endloop
 endfacet
 facet normal  0.000000e+00 -0.000000e+00 -1.000000e+00
   outer loop
     vertex  5.374646e+00  6.191196e+00  0.000000e+00
     vertex  5.461152e+00  5.992824e+00  0.000000e+00
     vertex  0.000000e+00  0.000000e+00  0.000000e+00
   endloop
 endfacet
 facet normal -0.000000e+00  0.000000e+00 -1.000000e+00
   outer loop
     vertex  8.244306e+00  3.408553e+00  0.000000e+00
     vertex  0.000000e+00  0.000000e+00  0.000000e+00
     vertex  8.043365e+00  3.488912e+00  0.000000e+00
   endloop
 endfacet
 facet normal  0.000000e+00 -0.000000e+00 -1.000000e+00
   outer loop
     vertex  5.296805e+00  6.393126e+00  0.000000e+00
     vertex  5.374646e+00  6.191196e+00  0.000000e+00
     vertex  0.000000e+00  0.000000e+00  0.000000e+00
   endloop
 endfacet
 facet normal -0.000000e+00  0.000000e+00 -1.000000e+00
   outer loop
     vertex  8.448535e+00  3.336965e+00  0.000000e+00
     vertex  0.000000e+00  0.000000e+00  0.000000e+00
     vertex  8.244306e+00  3.408553e+00  0.000000e+00
   endloop
 endfacet
 facet normal  0.000000e+00 -0.000000e+00 -1.000000e+00
   outer loop
     vertex  5.227775e+00  6.598235e+00  0.000000e+00
     vertex  5.296805e+00  6.393126e+00  0.000000e+00
     vertex  0.000000e+00  0.000000e+00  0.000000e+00
   endloop
 endfacet
 facet normal -0.000000e+00  0.000000e+00 -1.000000e+00
   outer loop
     vertex  8.655672e+00  3.274281e+00  0.000000e+00
     vertex  0.000000e+00  0.000000e+00  0.000000e+00
     vertex  8.448535e+00  3.336965e+00  0.000000e+00
   endloop
 endfacet
 facet normal  0.000000e+00 -0.000000e+00 -1.000000e+00
   outer loop
     vertex  5.167686e+00  6.806138e+00  0.000000e+00
     vertex  5.227775e+00  6.598235e+00  0.000000e+00
     vertex  0.000000e+00  0.000000e+00  0.000000e+00
   endloop
 endfacet
 facet normal -0.000000e+00  0.000000e+00 -1.000000e+00
   outer loop
     vertex  8.865327e+00  3.220620e+00  0.000000e+00
     vertex  0.000000e+00  0.000000e+00  0.000000e+00
     vertex  8.655672e+00  3.274281e+00  0.000000e+00
   endloop
 endfacet
 facet normal  0.000000e+00 -0.000000e+00 -1.000000e+00
   outer loop
     vertex  5.116649e+00  7.016448e+00  0.000000e+00
     vertex  5.167686e+00  6.806138e+00  0.000000e+00
     vertex  0.000000e+00  0.000000e+00  0.000000e+00
   endloop
 endfacet
 facet normal -0.000000e+00  0.000000e+00 -1.000000e+00
   outer loop
     vertex  9.077107e+00  3.176081e+00  0.000000e+00
     vertex  0.000000e+00  0.000000e+00  0.000000e+00
     vertex  8.865327e+00  3.220620e+00  0.000000e+00
   endloop
 endfacet
 facet normal  0.000000e+00 -0.000000e+00 -1.000000e+00
   outer loop
     vertex  5.074760e+00  7.228768e+00  0.000000e+00
     vertex  5.116649e+00  7.016448e+00  0.000000e+00
     vertex  0.000000e+00  0.000000e+00  0.000000e+00
   endloop
 endfacet
 facet normal -0.000000e+00  0.000000e+00 -1.000000e+00
   outer loop
     vertex  9.290617e+00  3.140748e+00  0.000000e+00
     vertex  0.000000e+00  0.000000e+00  0.000000e+00
     vertex  9.077107e+00  3.176081e+00  0.000000e+00
   endloop
 endfacet
 facet normal  0.000000e+00 -0.000000e+00 -1.000000e+00
   outer loop
     vertex  5.042099e+00  7.442703e+00  0.000000e+00
     vertex  5.074760e+00  7.228768e+00  0.000000e+00
     vertex  0.000000e+00  0.000000e+00  0.000000e+00
   endloop
 endfacet
 facet normal -0.000000e+00  0.000000e+00 -1.000000e+00
   outer loop
     vertex  9.505455e+00  3.114688e+00  0.000000e+00
     vertex  0.000000e+00  0.000000e+00  0.000000e+00
     vertex  9.290617e+00  3.140748e+00  0.000000e+00
   endloop
 endfacet
 facet normal  0.000000e+00 -0.000000e+00 -1.000000e+00
   outer loop
     vertex  5.018725e+00  7.657850e+00  0.000000e+00
     vertex  5.042099e+00  7.442703e+00  0.000000e+00
     vertex  0.000000e+00  0.000000e+00  0.000000e+00
   endloop
 endfacet
 facet normal -0.000000e+00  0.000000e+00 -1.000000e+00
   outer loop
     vertex  9.721220e+00  3.097948e+00  0.000000e+00
     vertex  0.000000e+00  0.000000e+00  0.000000e+00
     vertex  9.505455e+00  3.114688e+00  0.000000e+00
   endloop
 endfacet
 facet normal  0.000000e+00 -0.000000e+00 -1.000000e+00
   outer loop
     vertex  5.004683e+00  7.873807e+00  0.000000e+00
     vertex  5.018725e+00  7.657850e+00  0.000000e+00
     vertex  0.000000e+00  0.000000e+00  0.000000e+00
   endloop
 endfacet
 facet normal -0.000000e+00  0.000000e+00 -1.000000e+00
   outer loop
     vertex  9.937507e+00  3.090560e+00  0.000000e+00
     vertex  0.000000e+00  0.000000e+00  0.000000e+00
     vertex  9.721220e+00  3.097948e+00  0.000000e+00
   endloop
 endfacet
 facet normal  0.000000e+00 -0.000000e+00 -1.000000e+00
   outer loop
     vertex  5.000000e+00  8.090170e+00  0.000000e+00
     vertex  5.004683e+00  7.873807e+00  0.000000e+00
     vertex  0.000000e+00  0.000000e+00  0.000000e+00
   endloop
 endfacet
 facet normal  0.000000e+00  0.000000e+00 -1.000000e+00
   outer loop
     vertex  1.015391e+01  3.092539e+00  0.000000e+00
     vertex  0.000000e+00  0.000000e+00  0.000000e+00
     vertex  9.937507e+00  3.090560e+00  0.000000e+00
   endloop
 endfacet
 facet normal  0.000000e+00  0.000000e+00 -1.000000e+00
   outer loop
     vertex  1.037003e+01  3.103881e+00  0.000000e+00
     vertex  0.000000e+00  0.000000e+00  0.000000e+00
     vertex  1.015391e+01  3.092539e+00  0.000000e+00
   endloop
 endfacet
 facet normal  0.000000e+00  0.000000e+00 -1.000000e+00
   outer loop
     vertex  1.058545e+01  3.124563e+00  0.000000e+00
     vertex  0.000000e+00  0.000000e+00  0.000000e+00
     vertex  1.037003e+01  3.103881e+00  0.000000e+00
   endloop
 endfacet
 facet normal  0.000000e+00  0.000000e+00 -1.000000e+00
   outer loop
     vertex  1.079978e+01  3.154549e+00  0.000000e+00
     vertex  0.000000e+00  0.000000e+00  0.000000e+00
     vertex  1.058545e+01  3.124563e+00  0.000000e+00
   endloop
 endfacet
 facet normal  0.000000e+00  0.000000e+00 -1.000000e+00
   outer loop
     vertex  1.101260e+01  3.193780e+00  0.000000e+00
     vertex  0.000000e+00  0.000000e+00  0.000000e+00
     vertex  1.079978e+01  3.154549e+00  0.000000e+00
   endloop
 endfacet
 facet normal  0.000000e+00  0.000000e+00 -1.000000e+00
   outer loop
     vertex  0.000000e+00  4.500000e+01  0.000000e+00
     vertex  5.000000e+00  8.090170e+00  0.000000e+00
     vertex  0.000000e+00  0.000000e+00  0.000000e+00
   endloop
 endfacet
 facet normal  0.000000e+00  0.000000e+00 -1.000000e+00
   outer loop
     vertex  0.000000e+00  4.500000e+01  0.000000e+00
     vertex  5.000000e+00  3.900000e+01  0.000000e+00
     vertex  5.000000e+00  8.090170e+00  0.000000e+00
   endloop
 endfacet
 facet normal  0.000000e+00  0.000000e+00 -1.000000e+00
   outer loop
     vertex  6.000000e+01  0.000000e+00  0.000000e+00
     vertex  1.223607e+01  3.618034e+00  0.000000e+00
     vertex  3.100000e+01  1.300000e+01  0.000000e+00
   endloop
 endfacet
 facet normal  0.000000e+00  0.000000e+00 -1.000000e+00
   outer loop
     vertex  6.000000e+01  0.000000e+00  0.000000e+00
     vertex  1.204045e+01  3.525463e+00  0.000000e+00
     vertex  1.223607e+01  3.618034e+00  0.000000e+00
   endloop
 endfacet
 facet normal  0.000000e+00  0.000000e+00 -1.000000e+00
   outer loop
     vertex  6.000000e+01  0.000000e+00  0.000000e+00
     vertex  1.184102e+01  3.441443e+00  0.000000e+00
     vertex  1.204045e+01  3.525463e+00  0.000000e+00
   endloop
 endfacet
 facet normal  0.000000e+00  0.000000e+00 -1.000000e+00
   outer loop
     vertex  6.000000e+01  0.000000e+00  0.000000e+00
     vertex  1.163813e+01  3.366132e+00  0.000000e+00
     vertex  1.184102e+01  3.441443e+00  0.000000e+00
   endloop
 endfacet
 facet normal  0.000000e+00  0.000000e+00 -1.000000e+00
   outer loop
     vertex  6.000000e+01  0.000000e+00  0.000000e+00
     vertex  1.143217e+01  3.299671e+00  0.000000e+00
     vertex  1.163813e+01  3.366132e+00  0.000000e+00
   endloop
 endfacet
 facet normal  0.000000e+00  0.000000e+00 -1.000000e+00
   outer loop
     vertex  6.000000e+01  0.000000e+00  0.000000e+00
     vertex  1.122353e+01  3.242184e+00  0.000000e+00
     vertex  1.143217e+01  3.299671e+00  0.000000e+00
   endloop
 endfacet
 facet normal  0.000000e+00  0.000000e+00 -1.000000e+00
   outer loop
     vertex  6.000000e+01  0.000000e+00  0.000000e+00
     vertex  1.101260e+01  3.193780e+00  0.000000e+00
     vertex  1.122353e+01  3.242184e+00  0.000000e+00
   endloop
 endfacet
 facet normal  0.000000e+00  0.000000e+00 -1.000000e+00
   outer loop
     vertex  6.000000e+01  0.000000e+00  0.000000e+00
     vertex  0.000000e+00  0.000000e+00  0.000000e+00
     vertex  1.101260e+01  3.193780e+00  0.000000e+00
   endloop
 endfacet
 facet normal -0.000000e+00 -0.000000e+00 -1.000000e+00
   outer loop
     vertex  6.000000e+01  1.300000e+01  0.000000e+00
     vertex  6.000000e+01  0.000000e+00  0.000000e+00
     vertex  3.100000e+01  1.300000e+01  0.000000e+00
   endloop
 endfacet
 facet normal -0.000000e+00  0.000000e+00 -1.000000e+00
   outer loop
     vertex  6.000000e+01  4.500000e+01  0.000000e+00
     vertex  5.000000e+00  3.900000e+01  0.000000e+00
     vertex  0.000000e+00  4.500000e+01  0.000000e+00
   endloop
 endfacet
 facet normal  0.000000e+00 -0.000000e+00 -1.000000e+00
   outer loop
     vertex  6.000000e+01  4.500000e+01  0.000000e+00
     vertex  6.000000e+01  3.900000e+01  0.000000e+00
     vertex  5.000000e+00  3.900000e+01  0.000000e+00
   endloop
 endfacet
 facet normal  1.000000e+00  0.000000e+00  0.000000e+00
   outer loop
     vertex  6.000000e+01  0.000000e+00  2.000000e+00
     vertex  6.000000e+01  0.000000e+00  0.000000e+00
     vertex  6.000000e+01  1.300000e+01  0.000000e+00
   endloop
 endfacet
 facet normal  1.000000e+00 -0.000000e+00  0.000000e+00
   outer loop
     vertex  6.000000e+01  0.000000e+00  2.000000e+00
     vertex  6.000000e+01  1.300000e+01  0.000000e+00
     vertex  6.000000e+01  1.300000e+01  2.000000e+00
   endloop
 endfacet
 facet normal  1.000000e+00  0.000000e+00  0.000000e+00
   outer loop
     vertex  6.000000e+01  3.900000e+01  2.000000e+00
     vertex  6.000000e+01  3.900000e+01  0.000000e+00
     vertex  6.000000e+01  4.500000e+01  0.000000e+00
   endloop
 endfacet
 facet normal  1.000000e+00 -0.000000e+00  0.000000e+00
   outer loop
     vertex  6.000000e+01  3.900000e+01  2.000000e+00
     vertex  6.000000e+01  4.500000e+01  0.000000e+00
     vertex  6.000000e+01  4.500000e+01  2.000000e+00
   endloop
 endfacet
 facet normal  0.000000e+00 -1.000000e+00  0.000000e+00
   outer loop
     vertex  5.000000e+00  3.900000e+01  0.000000e+00
     vertex  6.000000e+01  3.900000e+01  0.000000e+00
     vertex  6.000000e+01  3.900000e+01  2.000000e+00
   endloop
 endfacet
 facet normal  0.000000e+00 -1.000000e+00  0.000000e+00
   outer loop
     vertex  5.000000e+00  3.900000e+01  0.000000e+00
     vertex  6.000000e+01  3.900000e+01  2.000000e+00
     vertex  5.000000e+00  3.900000e+01  2.000000e+00
   endloop
 endfacet
 facet normal  1.000000e+00  0.000000e+00  0.000000e+00
   outer loop
     vertex  5.000000e+00  8.090170e+00  0.000000e+00
     vertex  5.000000e+00  3.900000e+01  0.000000e+00
     vertex  5.000000e+00  3.900000e+01  2.000000e+00
   endloop
 endfacet
 facet normal  1.000000e+00  0.000000e+00  0.000000e+00
   outer loop
     vertex  5.000000e+00  8.090170e+00  0.000000e+00
     vertex  5.000000e+00  3.900000e+01  2.000000e+00
     vertex  5.000000e+00  8.090170e+00  2.000000e+00
   endloop
 endfacet
 facet normal  9.997658e-01  2.164133e-02  0.000000e+00
   outer loop
     vertex  5.004683e+00  7.873807e+00  0.000000e+00
     vertex  5.000000e+00  8.090170e+00  0.000000e+00
     vertex  5.000000e+00  8.090170e+00  2.000000e+00
   endloop
 endfacet
 facet normal  9.997658e-01  2.164133e-02 -0.000000e+00
   outer loop
     vertex  5.004683e+00  7.873807e+00  0.000000e+00
     vertex  5.000000e+00  8.090170e+00  2.000000e+00
     vertex  5.004683e+00  7.873807e+00  2.000000e+00
   endloop
 endfacet
 facet normal  9.978928e-01  6.488345e-02  0.000000e+00
   outer loop
     vertex  5.018725e+00  7.657850e+00  0.000000e+00
     vertex  5.004683e+00  7.873807e+00  0.000000e+00
     vertex  5.004683e+00  7.873807e+00  2.000000e+00
   endloop
 endfacet
 facet normal  9.978928e-01  6.488345e-02 -0.000000e+00
   outer loop
     vertex  5.018725e+00  7.657850e+00  0.000000e+00
     vertex  5.004683e+00  7.873807e+00  2.000000e+00
     vertex  5.018725e+00  7.657850e+00  2.000000e+00
   endloop
 endfacet
 facet normal  9.941505e-01  1.080040e-01  0.000000e+00
   outer loop
     vertex  5.042099e+00  7.442703e+00  0.000000e+00
     vertex  5.018725e+00  7.657850e+00  0.000000e+00
     vertex  5.018725e+00  7.657850e+00  2.000000e+00
   endloop
 endfacet
 facet normal  9.941505e-01  1.080040e-01 -0.000000e+00
   outer loop
     vertex  5.042099e+00  7.442703e+00  0.000000e+00
     vertex  5.018725e+00  7.657850e+00  2.000000e+00
     vertex  5.042099e+00  7.442703e+00  2.000000e+00
   endloop
 endfacet
 facet normal  9.885456e-01  1.509223e-01  0.000000e+00
   outer loop
     vertex  5.074760e+00  7.228768e+00  0.000000e+00
     vertex  5.042099e+00  7.442703e+00  0.000000e+00
     vertex  5.042099e+00  7.442703e+00  2.000000e+00
   endloop
 endfacet
 facet normal  9.885456e-01  1.509223e-01 -0.000000e+00
   outer loop
     vertex  5.074760e+00  7.228768e+00  0.000000e+00
     vertex  5.042099e+00  7.442703e+00  2.000000e+00
     vertex  5.074760e+00  7.228768e+00  2.000000e+00
   endloop
 endfacet
 facet normal  9.810889e-01  1.935577e-01  0.000000e+00
   outer loop
     vertex  5.116649e+00  7.016448e+00  0.000000e+00
     vertex  5.074760e+00  7.228768e+00  0.000000e+00
     vertex  5.074760e+00  7.228768e+00  2.000000e+00
   endloop
 endfacet
 facet normal  9.810889e-01  1.935577e-01 -0.000000e+00
   outer loop
     vertex  5.116649e+00  7.016448e+00  0.000000e+00
     vertex  5.074760e+00  7.228768e+00  2.000000e+00
     vertex  5.116649e+00  7.016448e+00  2.000000e+00
   endloop
 endfacet
 facet normal  9.717942e-01  2.358306e-01  0.000000e+00
   outer loop
     vertex  5.167686e+00  6.806138e+00  0.000000e+00
     vertex  5.116649e+00  7.016448e+00  0.000000e+00
     vertex  5.116649e+00  7.016448e+00  2.000000e+00
   endloop
 endfacet
 facet normal  9.717942e-01  2.358306e-01 -0.000000e+00
   outer loop
     vertex  5.167686e+00  6.806138e+00  0.000000e+00
     vertex  5.116649e+00  7.016448e+00  2.000000e+00
     vertex  5.167686e+00  6.806138e+00  2.000000e+00
   endloop
 endfacet
 facet normal  9.606789e-01  2.776617e-01  0.000000e+00
   outer loop
     vertex  5.227775e+00  6.598235e+00  0.000000e+00
     vertex  5.167686e+00  6.806138e+00  0.000000e+00
     vertex  5.167686e+00  6.806138e+00  2.000000e+00
   endloop
 endfacet
 facet normal  9.606789e-01  2.776617e-01 -0.000000e+00
   outer loop
     vertex  5.227775e+00  6.598235e+00  0.000000e+00
     vertex  5.167686e+00  6.806138e+00  2.000000e+00
     vertex  5.227775e+00  6.598235e+00  2.000000e+00
   endloop
 endfacet
 facet normal  9.477639e-01  3.189726e-01  0.000000e+00
   outer loop
     vertex  5.296805e+00  6.393126e+00  0.000000e+00
     vertex  5.227775e+00  6.598235e+00  0.000000e+00
     vertex  5.227775e+00  6.598235e+00  2.000000e+00
   endloop
 endfacet
 facet normal  9.477639e-01  3.189726e-01 -0.000000e+00
   outer loop
     vertex  5.296805e+00  6.393126e+00  0.000000e+00
     vertex  5.227775e+00  6.598235e+00  2.000000e+00
     vertex  5.296805e+00  6.393126e+00  2.000000e+00
   endloop
 endfacet
 facet normal  9.330734e-01  3.596860e-01  0.000000e+00
   outer loop
     vertex  5.374646e+00  6.191196e+00  0.000000e+00
     vertex  5.296805e+00  6.393126e+00  0.000000e+00
     vertex  5.296805e+00  6.393126e+00  2.000000e+00
   endloop
 endfacet
 facet normal  9.166349e-01  3.997255e-01 -0.000000e+00
   outer loop
     vertex  5.374646e+00  6.191196e+00  0.000000e+00
     vertex  5.374646e+00  6.191196e+00  2.000000e+00
     vertex  5.461152e+00  5.992824e+00  2.000000e+00
   endloop
 endfacet
 facet normal  9.330734e-01  3.596860e-01 -0.000000e+00
   outer loop
     vertex  5.374646e+00  6.191196e+00  0.000000e+00
     vertex  5.296805e+00  6.393126e+00  2.000000e+00
     vertex  5.374646e+00  6.191196e+00  2.000000e+00
   endloop
 endfacet
 facet normal  9.166349e-01  3.997255e-01 -0.000000e+00
   outer loop
     vertex  5.461152e+00  5.992824e+00  0.000000e+00
     vertex  5.374646e+00  6.191196e+00  0.000000e+00
     vertex  5.461152e+00  5.992824e+00  2.000000e+00
   endloop
 endfacet
 facet normal  8.984791e-01  4.390162e-01  0.000000e+00
   outer loop
     vertex  5.556161e+00  5.798382e+00  0.000000e+00
     vertex  5.461152e+00  5.992824e+00  0.000000e+00
     vertex  5.461152e+00  5.992824e+00  2.000000e+00
   endloop
 endfacet
 facet normal  8.786402e-01  4.774844e-01 -0.000000e+00
   outer loop
     vertex  5.556161e+00  5.798382e+00  0.000000e+00
     vertex  5.556161e+00  5.798382e+00  2.000000e+00
     vertex  5.659495e+00  5.608232e+00  2.000000e+00
   endloop
 endfacet
 facet normal  8.984791e-01  4.390162e-01 -0.000000e+00
   outer loop
     vertex  5.556161e+00  5.798382e+00  0.000000e+00
     vertex  5.461152e+00  5.992824e+00  2.000000e+00
     vertex  5.556161e+00  5.798382e+00  2.000000e+00
   endloop
 endfacet
 facet normal  8.786402e-01  4.774844e-01 -0.000000e+00
   outer loop
     vertex  5.659495e+00  5.608232e+00  0.000000e+00
     vertex  5.556161e+00  5.798382e+00  0.000000e+00
     vertex  5.659495e+00  5.608232e+00  2.000000e+00
   endloop
 endfacet
 facet normal  8.571552e-01  5.150582e-01 -0.000000e+00
   outer loop
     vertex  5.659495e+00  5.608232e+00  0.000000e+00
     vertex  5.659495e+00  5.608232e+00  2.000000e+00
     vertex  5.770960e+00  5.422732e+00  2.000000e+00
   endloop
 endfacet
 facet normal  8.571552e-01  5.150582e-01 -0.000000e+00
   outer loop
     vertex  5.770960e+00  5.422732e+00  0.000000e+00
     vertex  5.659495e+00  5.608232e+00  0.000000e+00
     vertex  5.770960e+00  5.422732e+00  2.000000e+00
   endloop
 endfacet
 facet normal  8.340645e-01  5.516670e-01  0.000000e+00
   outer loop
     vertex  5.890348e+00  5.242230e+00  0.000000e+00
     vertex  5.770960e+00  5.422732e+00  0.000000e+00
     vertex  5.770960e+00  5.422732e+00  2.000000e+00
   endloop
 endfacet
 facet normal  8.340645e-01  5.516670e-01 -0.000000e+00
   outer loop
     vertex  5.890348e+00  5.242230e+00  0.000000e+00
     vertex  5.770960e+00  5.422732e+00  2.000000e+00
     vertex  5.890348e+00  5.242230e+00  2.000000e+00
   endloop
 endfacet
 facet normal  8.094112e-01  5.872423e-01  0.000000e+00
   outer loop
     vertex  6.017435e+00  5.067062e+00  0.000000e+00
     vertex  5.890348e+00  5.242230e+00  0.000000e+00
     vertex  5.890348e+00  5.242230e+00  2.000000e+00
   endloop
 endfacet
 facet normal  7.832415e-01  6.217175e-01 -0.000000e+00
   outer loop
     vertex  6.017435e+00  5.067062e+00  0.000000e+00
     vertex  6.017435e+00  5.067062e+00  2.000000e+00
     vertex  6.151983e+00  4.897558e+00  2.000000e+00
   endloop
 endfacet
 facet normal  8.094112e-01  5.872423e-01 -0.000000e+00
   outer loop
     vertex  6.017435e+00  5.067062e+00  0.000000e+00
     vertex  5.890348e+00  5.242230e+00  2.000000e+00
     vertex  6.017435e+00  5.067062e+00  2.000000e+00
   endloop
 endfacet
 facet normal  7.832415e-01  6.217175e-01 -0.000000e+00
   outer loop
     vertex  6.151983e+00  4.897558e+00  0.000000e+00
     vertex  6.017435e+00  5.067062e+00  0.000000e+00
     vertex  6.151983e+00  4.897558e+00  2.000000e+00
   endloop
 endfacet
 facet normal  7.556046e-01  6.550280e-01 -0.000000e+00
   outer loop
     vertex  6.151983e+00  4.897558e+00  0.000000e+00
     vertex  6.151983e+00  4.897558e+00  2.000000e+00
     vertex  6.293740e+00  4.734036e+00  2.000000e+00
   endloop
 endfacet
 facet normal  7.556046e-01  6.550280e-01 -0.000000e+00
   outer loop
     vertex  6.293740e+00  4.734036e+00  0.000000e+00
     vertex  6.151983e+00  4.897558e+00  0.000000e+00
     vertex  6.293740e+00  4.734036e+00  2.000000e+00
   endloop
 endfacet
 facet normal  7.265521e-01  6.871114e-01  0.000000e+00
   outer loop
     vertex  6.442440e+00  4.576800e+00  0.000000e+00
     vertex  6.293740e+00  4.734036e+00  0.000000e+00
     vertex  6.293740e+00  4.734036e+00  2.000000e+00
   endloop
 endfacet
 facet normal  7.265521e-01  6.871114e-01 -0.000000e+00
   outer loop
     vertex  6.442440e+00  4.576800e+00  0.000000e+00
     vertex  6.293740e+00  4.734036e+00  2.000000e+00
     vertex  6.442440e+00  4.576800e+00  2.000000e+00
   endloop
 endfacet
 facet normal  6.644208e-01  7.473587e-01 -0.000000e+00
   outer loop
     vertex  6.597805e+00  4.426146e+00  0.000000e+00
     vertex  6.597805e+00  4.426146e+00  2.000000e+00
     vertex  6.759543e+00  4.282357e+00  2.000000e+00
   endloop
 endfacet
 facet normal  6.961385e-01  7.179075e-01 -0.000000e+00
   outer loop
     vertex  6.597805e+00  4.426146e+00  0.000000e+00
     vertex  6.442440e+00  4.576800e+00  2.000000e+00
     vertex  6.597805e+00  4.426146e+00  2.000000e+00
   endloop
 endfacet
 facet normal  6.961385e-01  7.179075e-01  0.000000e+00
   outer loop
     vertex  6.597805e+00  4.426146e+00  0.000000e+00
     vertex  6.442440e+00  4.576800e+00  0.000000e+00
     vertex  6.442440e+00  4.576800e+00  2.000000e+00
   endloop
 endfacet
 facet normal  6.644208e-01  7.473587e-01 -0.000000e+00
   outer loop
     vertex  6.759543e+00  4.282357e+00  0.000000e+00
     vertex  6.597805e+00  4.426146e+00  0.000000e+00
     vertex  6.759543e+00  4.282357e+00  2.000000e+00
   endloop
 endfacet
 facet normal  5.973129e-01  8.020083e-01 -0.000000e+00
   outer loop
     vertex  6.927352e+00  4.145701e+00  0.000000e+00
     vertex  6.927352e+00  4.145701e+00  2.000000e+00
     vertex  7.100918e+00  4.016434e+00  2.000000e+00
   endloop
 endfacet
 facet normal  6.314583e-01  7.754098e-01 -0.000000e+00
   outer loop
     vertex  6.927352e+00  4.145701e+00  0.000000e+00
     vertex  6.759543e+00  4.282357e+00  2.000000e+00
     vertex  6.927352e+00  4.145701e+00  2.000000e+00
   endloop
 endfacet
 facet normal  6.314583e-01  7.754098e-01  0.000000e+00
   outer loop
     vertex  6.927352e+00  4.145701e+00  0.000000e+00
     vertex  6.759543e+00  4.282357e+00  0.000000e+00
     vertex  6.759543e+00  4.282357e+00  2.000000e+00
   endloop
 endfacet
 facet normal  5.973129e-01  8.020083e-01 -0.000000e+00
   outer loop
     vertex  7.100918e+00  4.016434e+00  0.000000e+00
     vertex  6.927352e+00  4.145701e+00  0.000000e+00
     vertex  7.100918e+00  4.016434e+00  2.000000e+00
   endloop
 endfacet
 facet normal  5.257311e-01  8.506508e-01 -0.000000e+00
   outer loop
     vertex  7.279914e+00  3.894800e+00  0.000000e+00
     vertex  7.279914e+00  3.894800e+00  2.000000e+00
     vertex  7.464006e+00  3.781024e+00  2.000000e+00
   endloop
 endfacet
 facet normal  5.620485e-01  8.271043e-01 -0.000000e+00
   outer loop
     vertex  7.279914e+00  3.894800e+00  0.000000e+00
     vertex  7.100918e+00  4.016434e+00  2.000000e+00
     vertex  7.279914e+00  3.894800e+00  2.000000e+00
   endloop
 endfacet
 facet normal  5.620485e-01  8.271043e-01  0.000000e+00
   outer loop
     vertex  7.279914e+00  3.894800e+00  0.000000e+00
     vertex  7.100918e+00  4.016434e+00  0.000000e+00
     vertex  7.100918e+00  4.016434e+00  2.000000e+00
   endloop
 endfacet
 facet normal  5.257311e-01  8.506508e-01 -0.000000e+00
   outer loop
     vertex  7.464006e+00  3.781024e+00  0.000000e+00
     vertex  7.279914e+00  3.894800e+00  0.000000e+00
     vertex  7.464006e+00  3.781024e+00  2.000000e+00
   endloop
 endfacet
 facet normal  4.884289e-01  8.726037e-01 -0.000000e+00
   outer loop
     vertex  7.652849e+00  3.675322e+00  0.000000e+00
     vertex  7.464006e+00  3.781024e+00  2.000000e+00
     vertex  7.652849e+00  3.675322e+00  2.000000e+00
   endloop
 endfacet
 facet normal  4.884289e-01  8.726037e-01  0.000000e+00
   outer loop
     vertex  7.652849e+00  3.675322e+00  0.000000e+00
     vertex  7.464006e+00  3.781024e+00  0.000000e+00
     vertex  7.464006e+00  3.781024e+00  2.000000e+00
   endloop
 endfacet
 facet normal  4.502116e-01  8.929219e-01  0.000000e+00
   outer loop
     vertex  7.846089e+00  3.577890e+00  0.000000e+00
     vertex  7.652849e+00  3.675322e+00  0.000000e+00
     vertex  7.652849e+00  3.675322e+00  2.000000e+00
   endloop
 endfacet
 facet normal  4.502116e-01  8.929219e-01 -0.000000e+00
   outer loop
     vertex  7.846089e+00  3.577890e+00  0.000000e+00
     vertex  7.652849e+00  3.675322e+00  2.000000e+00
     vertex  7.846089e+00  3.577890e+00  2.000000e+00
   endloop
 endfacet
 facet normal  4.111509e-01  9.115673e-01  0.000000e+00
   outer loop
     vertex  8.043365e+00  3.488912e+00  0.000000e+00
     vertex  7.846089e+00  3.577890e+00  0.000000e+00
     vertex  7.846089e+00  3.577890e+00  2.000000e+00
   endloop
 endfacet
 facet normal  4.111509e-01  9.115673e-01 -0.000000e+00
   outer loop
     vertex  8.043365e+00  3.488912e+00  0.000000e+00
     vertex  7.846089e+00  3.577890e+00  2.000000e+00
     vertex  8.043365e+00  3.488912e+00  2.000000e+00
   endloop
 endfacet
 facet normal  3.713199e-01  9.285050e-01  0.000000e+00
   outer loop
     vertex  8.244306e+00  3.408553e+00  0.000000e+00
     vertex  8.043365e+00  3.488912e+00  0.000000e+00
     vertex  8.043365e+00  3.488912e+00  2.000000e+00
   endloop
 endfacet
 facet normal  3.307934e-01  9.437032e-01 -0.000000e+00
   outer loop
     vertex  8.244306e+00  3.408553e+00  0.000000e+00
     vertex  8.244306e+00  3.408553e+00  2.000000e+00
     vertex  8.448535e+00  3.336965e+00  2.000000e+00
   endloop
 endfacet
 facet normal  3.713199e-01  9.285050e-01 -0.000000e+00
   outer loop
     vertex  8.244306e+00  3.408553e+00  0.000000e+00
     vertex  8.043365e+00  3.488912e+00  2.000000e+00
     vertex  8.244306e+00  3.408553e+00  2.000000e+00
   endloop
 endfacet
 facet normal  3.307934e-01  9.437032e-01 -0.000000e+00
   outer loop
     vertex  8.448535e+00  3.336965e+00  0.000000e+00
     vertex  8.244306e+00  3.408553e+00  0.000000e+00
     vertex  8.448535e+00  3.336965e+00  2.000000e+00
   endloop
 endfacet
 facet normal  2.896471e-01  9.571335e-01  0.000000e+00
   outer loop
     vertex  8.655672e+00  3.274281e+00  0.000000e+00
     vertex  8.448535e+00  3.336965e+00  0.000000e+00
     vertex  8.448535e+00  3.336965e+00  2.000000e+00
   endloop
 endfacet
 facet normal  2.896471e-01  9.571335e-01 -0.000000e+00
   outer loop
     vertex  8.655672e+00  3.274281e+00  0.000000e+00
     vertex  8.448535e+00  3.336965e+00  2.000000e+00
     vertex  8.655672e+00  3.274281e+00  2.000000e+00
   endloop
 endfacet
 facet normal  2.479582e-01  9.687707e-01  0.000000e+00
   outer loop
     vertex  8.865327e+00  3.220620e+00  0.000000e+00
     vertex  8.655672e+00  3.274281e+00  0.000000e+00
     vertex  8.655672e+00  3.274281e+00  2.000000e+00
   endloop
 endfacet
 facet normal  2.058048e-01  9.785931e-01 -0.000000e+00
   outer loop
     vertex  8.865327e+00  3.220620e+00  0.000000e+00
     vertex  8.865327e+00  3.220620e+00  2.000000e+00
     vertex  9.077107e+00  3.176081e+00  2.000000e+00
   endloop
 endfacet
 facet normal  2.479582e-01  9.687707e-01 -0.000000e+00
   outer loop
     vertex  8.865327e+00  3.220620e+00  0.000000e+00
     vertex  8.655672e+00  3.274281e+00  2.000000e+00
     vertex  8.865327e+00  3.220620e+00  2.000000e+00
   endloop
 endfacet
 facet normal  2.058048e-01  9.785931e-01 -0.000000e+00
   outer loop
     vertex  9.077107e+00  3.176081e+00  0.000000e+00
     vertex  8.865327e+00  3.220620e+00  0.000000e+00
     vertex  9.077107e+00  3.176081e+00  2.000000e+00
   endloop
 endfacet
 facet normal  1.632658e-01  9.865821e-01  0.000000e+00
   outer loop
     vertex  9.290617e+00  3.140748e+00  0.000000e+00
     vertex  9.077107e+00  3.176081e+00  0.000000e+00
     vertex  9.077107e+00  3.176081e+00  2.000000e+00
   endloop
 endfacet
 facet normal  1.632658e-01  9.865821e-01 -0.000000e+00
   outer loop
     vertex  9.290617e+00  3.140748e+00  0.000000e+00
     vertex  9.077107e+00  3.176081e+00  2.000000e+00
     vertex  9.290617e+00  3.140748e+00  2.000000e+00
   endloop
 endfacet
 facet normal  1.204210e-01  9.927229e-01  0.000000e+00
   outer loop
     vertex  9.505455e+00  3.114688e+00  0.000000e+00
     vertex  9.290617e+00  3.140748e+00  0.000000e+00
     vertex  9.290617e+00  3.140748e+00  2.000000e+00
   endloop
 endfacet
 facet normal  1.204210e-01  9.927229e-01 -0.000000e+00
   outer loop
     vertex  9.505455e+00  3.114688e+00  0.000000e+00
     vertex  9.290617e+00  3.140748e+00  2.000000e+00
     vertex  9.505455e+00  3.114688e+00  2.000000e+00
   endloop
 endfacet
 facet normal  7.735056e-02  9.970040e-01  0.000000e+00
   outer loop
     vertex  9.721220e+00  3.097948e+00  0.000000e+00
     vertex  9.505455e+00  3.114688e+00  0.000000e+00
     vertex  9.505455e+00  3.114688e+00  2.000000e+00
   endloop
 endfacet
 facet normal  7.735056e-02  9.970040e-01 -0.000000e+00
   outer loop
     vertex  9.721220e+00  3.097948e+00  0.000000e+00
     vertex  9.505455e+00  3.114688e+00  2.000000e+00
     vertex  9.721220e+00  3.097948e+00  2.000000e+00
   endloop
 endfacet
 facet normal  3.413523e-02  9.994172e-01  0.000000e+00
   outer loop
     vertex  9.937507e+00  3.090560e+00  0.000000e+00
     vertex  9.721220e+00  3.097948e+00  0.000000e+00
     vertex  9.721220e+00  3.097948e+00  2.000000e+00
   endloop
 endfacet
 facet normal  3.413523e-02  9.994172e-01 -0.000000e+00
   outer loop
     vertex  9.937507e+00  3.090560e+00  0.000000e+00
     vertex  9.721220e+00  3.097948e+00  2.000000e+00
     vertex  9.937507e+00  3.090560e+00  2.000000e+00
   endloop
 endfacet
 facet normal -9.144049e-03  9.999582e-01  0.000000e+00
   outer loop
     vertex  1.015391e+01  3.092539e+00  0.000000e+00
     vertex  9.937507e+00  3.090560e+00  0.000000e+00
     vertex  9.937507e+00  3.090560e+00  2.000000e+00
   endloop
 endfacet
 facet normal -9.144049e-03  9.999582e-01  0.000000e+00
   outer loop
     vertex  1.015391e+01  3.092539e+00  0.000000e+00
     vertex  9.937507e+00  3.090560e+00  2.000000e+00
     vertex  1.015391e+01  3.092539e+00  2.000000e+00
   endloop
 endfacet
 facet normal -5.240620e-02  9.986259e-01  0.000000e+00
   outer loop
     vertex  1.037003e+01  3.103881e+00  0.000000e+00
     vertex  1.015391e+01  3.092539e+00  0.000000e+00
     vertex  1.015391e+01  3.092539e+00  2.000000e+00
   endloop
 endfacet
 facet normal -5.240620e-02  9.986259e-01  0.000000e+00
   outer loop
     vertex  1.037003e+01  3.103881e+00  0.000000e+00
     vertex  1.015391e+01  3.092539e+00  2.000000e+00
     vertex  1.037003e+01  3.103881e+00  2.000000e+00
   endloop
 endfacet
 facet normal -9.557017e-02  9.954227e-01  0.000000e+00
   outer loop
     vertex  1.058545e+01  3.124563e+00  0.000000e+00
     vertex  1.037003e+01  3.103881e+00  0.000000e+00
     vertex  1.037003e+01  3.103881e+00  2.000000e+00
   endloop
 endfacet
 facet normal -9.557017e-02  9.954227e-01  0.000000e+00
   outer loop
     vertex  1.058545e+01  3.124563e+00  0.000000e+00
     vertex  1.037003e+01  3.103881e+00  2.000000e+00
     vertex  1.058545e+01  3.124563e+00  2.000000e+00
   endloop
 endfacet
 facet normal -1.385551e-01  9.903547e-01  0.000000e+00
   outer loop
     vertex  1.079978e+01  3.154549e+00  0.000000e+00
     vertex  1.058545e+01  3.124563e+00  0.000000e+00
     vertex  1.058545e+01  3.124563e+00  2.000000e+00
   endloop
 endfacet
 facet normal -1.812805e-01  9.834314e-01  0.000000e+00
   outer loop
     vertex  1.079978e+01  3.154549e+00  0.000000e+00
     vertex  1.079978e+01  3.154549e+00  2.000000e+00
     vertex  1.101260e+01  3.193780e+00  2.000000e+00
   endloop
 endfacet
 facet normal -1.385551e-01  9.903547e-01  0.000000e+00
   outer loop
     vertex  1.079978e+01  3.154549e+00  0.000000e+00
     vertex  1.058545e+01  3.124563e+00  2.000000e+00
     vertex  1.079978e+01  3.154549e+00  2.000000e+00
   endloop
 endfacet
 facet normal -1.812805e-01  9.834314e-01  0.000000e+00
   outer loop
     vertex  1.101260e+01  3.193780e+00  0.000000e+00
     vertex  1.079978e+01  3.154549e+00  0.000000e+00
     vertex  1.101260e+01  3.193780e+00  2.000000e+00
   endloop
 endfacet
 facet normal -2.236662e-01  9.746658e-01  0.000000e+00
   outer loop
     vertex  1.122353e+01  3.242184e+00  0.000000e+00
     vertex  1.101260e+01  3.193780e+00  2.000000e+00
     vertex  1.122353e+01  3.242184e+00  2.000000e+00
   endloop
 endfacet
 facet normal -2.236662e-01  9.746658e-01  0.000000e+00
   outer loop
     vertex  1.122353e+01  3.242184e+00  0.000000e+00
     vertex  1.101260e+01  3.193780e+00  0.000000e+00
     vertex  1.101260e+01  3.193780e+00  2.000000e+00
   endloop
 endfacet
 facet normal -3.071021e-01  9.516766e-01  0.000000e+00
   outer loop
     vertex  1.143217e+01  3.299671e+00  0.000000e+00
     vertex  1.143217e+01  3.299671e+00  2.000000e+00
     vertex  1.163813e+01  3.366132e+00  2.000000e+00
   endloop
 endfacet
 facet normal -2.656330e-01  9.640742e-01  0.000000e+00
   outer loop
     vertex  1.143217e+01  3.299671e+00  0.000000e+00
     vertex  1.122353e+01  3.242184e+00  2.000000e+00
     vertex  1.143217e+01  3.299671e+00  2.000000e+00
   endloop
 endfacet
 facet normal -2.656330e-01  9.640742e-01  0.000000e+00
   outer loop
     vertex  1.143217e+01  3.299671e+00  0.000000e+00
     vertex  1.122353e+01  3.242184e+00  0.000000e+00
     vertex  1.122353e+01  3.242184e+00  2.000000e+00
   endloop
 endfacet
 facet normal -3.071021e-01  9.516766e-01  0.000000e+00
   outer loop
     vertex  1.163813e+01  3.366132e+00  0.000000e+00
     vertex  1.143217e+01  3.299671e+00  0.000000e+00
     vertex  1.163813e+01  3.366132e+00  2.000000e+00
   endloop
 endfacet
 facet normal -3.479959e-01  9.374961e-01  0.000000e+00
   outer loop
     vertex  1.184102e+01  3.441443e+00  0.000000e+00
     vertex  1.163813e+01  3.366132e+00  2.000000e+00
     vertex  1.184102e+01  3.441443e+00  2.000000e+00
   endloop
 endfacet
 facet normal -3.479959e-01  9.374961e-01  0.000000e+00
   outer loop
     vertex  1.184102e+01  3.441443e+00  0.000000e+00
     vertex  1.163813e+01  3.366132e+00  0.000000e+00
     vertex  1.163813e+01  3.366132e+00  2.000000e+00
   endloop
 endfacet
 facet normal -3.882377e-01  9.215593e-01  0.000000e+00
   outer loop
     vertex  1.204045e+01  3.525463e+00  0.000000e+00
     vertex  1.184102e+01  3.441443e+00  2.000000e+00
     vertex  1.204045e+01  3.525463e+00  2.000000e+00
   endloop
 endfacet
 facet normal -3.882377e-01  9.215593e-01  0.000000e+00
   outer loop
     vertex  1.204045e+01  3.525463e+00  0.000000e+00
     vertex  1.184102e+01  3.441443e+00  0.000000e+00
     vertex  1.184102e+01  3.441443e+00  2.000000e+00
   endloop
 endfacet
 facet normal -4.277523e-01  9.038960e-01  0.000000e+00
   outer loop
     vertex  1.223607e+01  3.618034e+00  0.000000e+00
     vertex  1.204045e+01  3.525463e+00  2.000000e+00
     vertex  1.223607e+01  3.618034e+00  2.000000e+00
   endloop
 endfacet
 facet normal -4.277523e-01  9.038960e-01  0.000000e+00
   outer loop
     vertex  1.223607e+01  3.618034e+00  0.000000e+00
     vertex  1.204045e+01  3.525463e+00  0.000000e+00
     vertex  1.204045e+01  3.525463e+00  2.000000e+00
   endloop
 endfacet
 facet normal -4.472136e-01  8.944272e-01  0.000000e+00
   outer loop
     vertex  3.100000e+01  1.300000e+01  2.000000e+00
     vertex  1.223607e+01  3.618034e+00  0.000000e+00
     vertex  1.223607e+01  3.618034e+00  2.000000e+00
   endloop
 endfacet
 facet normal -4.472136e-01  8.944272e-01  0.000000e+00
   outer loop
     vertex  3.100000e+01  1.300000e+01  0.000000e+00
     vertex  1.223607e+01  3.618034e+00  0.000000e+00
     vertex  3.100000e+01  1.300000e+01  2.000000e+00
   endloop
 endfacet
 facet normal  0.000000e+00  1.000000e+00  0.000000e+00
   outer loop
     vertex  6.000000e+01  1.300000e+01  0.000000e+00
     vertex  3.100000e+01  1.300000e+01  0.000000e+00
     vertex  3.100000e+01  1.300000e+01  2.000000e+00
   endloop
 endfacet
 facet normal  0.000000e+00  1.000000e+00 -0.000000e+00
   outer loop
     vertex  6.000000e+01  1.300000e+01  0.000000e+00
     vertex  3.100000e+01  1.300000e+01  2.000000e+00
     vertex  6.000000e+01  1.300000e+01  2.000000e+00
   endloop
 endfacet
endsolid
