solid 
 facet normal -1.000000e+00  0.000000e+00  0.000000e+00
   outer loop
     vertex  0.000000e+00  0.000000e+00  2.000000e+00
     vertex  0.000000e+00  4.500000e+01  0.000000e+00
     vertex  0.000000e+00  0.000000e+00  0.000000e+00
   endloop
 endfacet
 facet normal -1.000000e+00  0.000000e+00  0.000000e+00
   outer loop
     vertex  0.000000e+00  0.000000e+00  2.000000e+00
     vertex  0.000000e+00  4.500000e+01  2.000000e+00
     vertex  0.000000e+00  4.500000e+01  0.000000e+00
   endloop
 endfacet
 facet normal  0.000000e+00 -1.000000e+00 -0.000000e+00
   outer loop
     vertex  6.000000e+01  0.000000e+00  2.000000e+00
     vertex  0.000000e+00  0.000000e+00  0.000000e+00
     vertex  6.000000e+01  0.000000e+00  0.000000e+00
   endloop
 endfacet
 facet normal -0.000000e+00 -1.000000e+00  0.000000e+00
   outer loop
     vertex  6.000000e+01  0.000000e+00  2.000000e+00
     vertex  0.000000e+00  0.000000e+00  2.000000e+00
     vertex  0.000000e+00  0.000000e+00  0.000000e+00
   endloop
 endfacet
 facet normal  0.000000e+00  0.000000e+00  1.000000e+00
   outer loop
     vertex  7.777060e+00  8.060382e+00  2.000000e+00
     vertex  7.570376e+00  8.264692e+00  2.000000e+00
     vertex  0.000000e+00  0.000000e+00  2.000000e+00
   endloop
 endfacet
 facet normal  0.000000e+00  0.000000e+00  1.000000e+00
   outer loop
     vertex  7.370396e+00  8.475570e+00  2.000000e+00
     vertex  0.000000e+00  0.000000e+00  2.000000e+00
     vertex  7.570376e+00  8.264692e+00  2.000000e+00
   endloop
 endfacet
 facet normal  0.000000e+00  0.000000e+00  1.000000e+00
   outer loop
     vertex  7.990233e+00  7.862850e+00  2.000000e+00
     vertex  7.777060e+00  8.060382e+00  2.000000e+00
     vertex  0.000000e+00  0.000000e+00  2.000000e+00
   endloop
 endfacet
 facet normal  0.000000e+00  0.000000e+00  1.000000e+00
   outer loop
     vertex  7.177329e+00  8.692794e+00  2.000000e+00
     vertex  0.000000e+00  0.000000e+00  2.000000e+00
     vertex  7.370396e+00  8.475570e+00  2.000000e+00
   endloop
 endfacet
 facet normal  0.000000e+00  0.000000e+00  1.000000e+00
   outer loop
     vertex  8.209673e+00  7.672305e+00  2.000000e+00
     vertex  7.990233e+00  7.862850e+00  2.000000e+00
     vertex  0.000000e+00  0.000000e+00  2.000000e+00
   endloop
 endfacet
 facet normal  0.000000e+00  0.000000e+00  1.000000e+00
   outer loop
     vertex  6.991377e+00  8.916139e+00  2.000000e+00
     vertex  0.000000e+00  0.000000e+00  2.000000e+00
     vertex  7.177329e+00  8.692794e+00  2.000000e+00
   endloop
 endfacet
 facet normal  0.000000e+00  0.000000e+00  1.000000e+00
   outer loop
     vertex  8.435150e+00  7.488944e+00  2.000000e+00
     vertex  8.209673e+00  7.672305e+00  2.000000e+00
     vertex  0.000000e+00  0.000000e+00  2.000000e+00
   endloop
 endfacet
 facet normal  0.000000e+00  0.000000e+00  1.000000e+00
   outer loop
     vertex  6.812732e+00  9.145371e+00  2.000000e+00
     vertex  0.000000e+00  0.000000e+00  2.000000e+00
     vertex  6.991377e+00  8.916139e+00  2.000000e+00
   endloop
 endfacet
 facet normal  0.000000e+00  0.000000e+00  1.000000e+00
   outer loop
     vertex  8.666430e+00  7.312959e+00  2.000000e+00
     vertex  8.435150e+00  7.488944e+00  2.000000e+00
     vertex  0.000000e+00  0.000000e+00  2.000000e+00
   endloop
 endfacet
 facet normal  0.000000e+00  0.000000e+00  1.000000e+00
   outer loop
     vertex  6.641582e+00  9.380252e+00  2.000000e+00
     vertex  0.000000e+00  0.000000e+00  2.000000e+00
     vertex  6.812732e+00  9.145371e+00  2.000000e+00
   endloop
 endfacet
 facet normal  0.000000e+00  0.000000e+00  1.000000e+00
   outer loop
     vertex  8.903272e+00  7.144533e+00  2.000000e+00
     vertex  8.666430e+00  7.312959e+00  2.000000e+00
     vertex  0.000000e+00  0.000000e+00  2.000000e+00
   endloop
 endfacet
 facet normal  0.000000e+00  0.000000e+00  1.000000e+00
   outer loop
     vertex  6.478105e+00  9.620536e+00  2.000000e+00
     vertex  0.000000e+00  0.000000e+00  2.000000e+00
     vertex  6.641582e+00  9.380252e+00  2.000000e+00
   endloop
 endfacet
 facet normal  0.000000e+00  0.000000e+00  1.000000e+00
   outer loop
     vertex  9.145428e+00  6.983841e+00  2.000000e+00
     vertex  8.903272e+00  7.144533e+00  2.000000e+00
     vertex  0.000000e+00  0.000000e+00  2.000000e+00
   endloop
 endfacet
 facet normal  0.000000e+00  0.000000e+00  1.000000e+00
   outer loop
     vertex  6.322471e+00  9.865973e+00  2.000000e+00
     vertex  0.000000e+00  0.000000e+00  2.000000e+00
     vertex  6.478105e+00  9.620536e+00  2.000000e+00
   endloop
 endfacet
 facet normal  0.000000e+00  0.000000e+00  1.000000e+00
   outer loop
     vertex  9.392646e+00  6.831052e+00  2.000000e+00
     vertex  9.145428e+00  6.983841e+00  2.000000e+00
     vertex  0.000000e+00  0.000000e+00  2.000000e+00
   endloop
 endfacet
 facet normal  0.000000e+00  0.000000e+00  1.000000e+00
   outer loop
     vertex  6.174842e+00  1.011631e+01  2.000000e+00
     vertex  0.000000e+00  0.000000e+00  2.000000e+00
     vertex  6.322471e+00  9.865973e+00  2.000000e+00
   endloop
 endfacet
 facet normal  0.000000e+00  0.000000e+00  1.000000e+00
   outer loop
     vertex  9.644668e+00  6.686324e+00  2.000000e+00
     vertex  9.392646e+00  6.831052e+00  2.000000e+00
     vertex  0.000000e+00  0.000000e+00  2.000000e+00
   endloop
 endfacet
 facet normal  0.000000e+00  0.000000e+00  1.000000e+00
   outer loop
     vertex  6.035373e+00  1.037128e+01  2.000000e+00
     vertex  0.000000e+00  0.000000e+00  2.000000e+00
     vertex  6.174842e+00  1.011631e+01  2.000000e+00
   endloop
 endfacet
 facet normal  0.000000e+00  0.000000e+00  1.000000e+00
   outer loop
     vertex  9.901232e+00  6.549809e+00  2.000000e+00
     vertex  9.644668e+00  6.686324e+00  2.000000e+00
     vertex  0.000000e+00  0.000000e+00  2.000000e+00
   endloop
 endfacet
 facet normal  0.000000e+00  0.000000e+00  1.000000e+00
   outer loop
     vertex  5.904209e+00  1.063062e+01  2.000000e+00
     vertex  0.000000e+00  0.000000e+00  2.000000e+00
     vertex  6.035373e+00  1.037128e+01  2.000000e+00
   endloop
 endfacet
 facet normal  0.000000e+00  0.000000e+00  1.000000e+00
   outer loop
     vertex  1.016207e+01  6.421649e+00  2.000000e+00
     vertex  9.901232e+00  6.549809e+00  2.000000e+00
     vertex  0.000000e+00  0.000000e+00  2.000000e+00
   endloop
 endfacet
 facet normal  0.000000e+00  0.000000e+00  1.000000e+00
   outer loop
     vertex  5.781487e+00  1.089406e+01  2.000000e+00
     vertex  0.000000e+00  0.000000e+00  2.000000e+00
     vertex  5.904209e+00  1.063062e+01  2.000000e+00
   endloop
 endfacet
 facet normal  0.000000e+00  0.000000e+00  1.000000e+00
   outer loop
     vertex  1.042691e+01  6.301978e+00  2.000000e+00
     vertex  1.016207e+01  6.421649e+00  2.000000e+00
     vertex  0.000000e+00  0.000000e+00  2.000000e+00
   endloop
 endfacet
 facet normal  0.000000e+00  0.000000e+00  1.000000e+00
   outer loop
     vertex  5.667335e+00  1.116132e+01  2.000000e+00
     vertex  0.000000e+00  0.000000e+00  2.000000e+00
     vertex  5.781487e+00  1.089406e+01  2.000000e+00
   endloop
 endfacet
 facet normal  0.000000e+00  0.000000e+00  1.000000e+00
   outer loop
     vertex  1.069547e+01  6.190920e+00  2.000000e+00
     vertex  1.042691e+01  6.301978e+00  2.000000e+00
     vertex  0.000000e+00  0.000000e+00  2.000000e+00
   endloop
 endfacet
 facet normal  0.000000e+00  0.000000e+00  1.000000e+00
   outer loop
     vertex  5.561871e+00  1.143213e+01  2.000000e+00
     vertex  0.000000e+00  0.000000e+00  2.000000e+00
     vertex  5.667335e+00  1.116132e+01  2.000000e+00
   endloop
 endfacet
 facet normal  0.000000e+00  0.000000e+00  1.000000e+00
   outer loop
     vertex  1.096749e+01  6.088590e+00  2.000000e+00
     vertex  1.069547e+01  6.190920e+00  2.000000e+00
     vertex  0.000000e+00  0.000000e+00  2.000000e+00
   endloop
 endfacet
 facet normal  0.000000e+00  0.000000e+00  1.000000e+00
   outer loop
     vertex  5.465206e+00  1.170621e+01  2.000000e+00
     vertex  0.000000e+00  0.000000e+00  2.000000e+00
     vertex  5.561871e+00  1.143213e+01  2.000000e+00
   endloop
 endfacet
 facet normal  0.000000e+00  0.000000e+00  1.000000e+00
   outer loop
     vertex  1.124266e+01  5.995097e+00  2.000000e+00
     vertex  1.096749e+01  6.088590e+00  2.000000e+00
     vertex  0.000000e+00  0.000000e+00  2.000000e+00
   endloop
 endfacet
 facet normal  0.000000e+00  0.000000e+00  1.000000e+00
   outer loop
     vertex  5.377441e+00  1.198326e+01  2.000000e+00
     vertex  0.000000e+00  0.000000e+00  2.000000e+00
     vertex  5.465206e+00  1.170621e+01  2.000000e+00
   endloop
 endfacet
 facet normal  0.000000e+00  0.000000e+00  1.000000e+00
   outer loop
     vertex  1.152071e+01  5.910537e+00  2.000000e+00
     vertex  1.124266e+01  5.995097e+00  2.000000e+00
     vertex  0.000000e+00  0.000000e+00  2.000000e+00
   endloop
 endfacet
 facet normal  0.000000e+00  0.000000e+00  1.000000e+00
   outer loop
     vertex  5.298666e+00  1.226300e+01  2.000000e+00
     vertex  0.000000e+00  0.000000e+00  2.000000e+00
     vertex  5.377441e+00  1.198326e+01  2.000000e+00
   endloop
 endfacet
 facet normal  0.000000e+00  0.000000e+00  1.000000e+00
   outer loop
     vertex  1.180134e+01  5.834998e+00  2.000000e+00
     vertex  1.152071e+01  5.910537e+00  2.000000e+00
     vertex  0.000000e+00  0.000000e+00  2.000000e+00
   endloop
 endfacet
 facet normal  0.000000e+00  0.000000e+00  1.000000e+00
   outer loop
     vertex  5.228965e+00  1.254514e+01  2.000000e+00
     vertex  0.000000e+00  0.000000e+00  2.000000e+00
     vertex  5.298666e+00  1.226300e+01  2.000000e+00
   endloop
 endfacet
 facet normal  0.000000e+00  0.000000e+00  1.000000e+00
   outer loop
     vertex  1.208427e+01  5.768560e+00  2.000000e+00
     vertex  1.180134e+01  5.834998e+00  2.000000e+00
     vertex  0.000000e+00  0.000000e+00  2.000000e+00
   endloop
 endfacet
 facet normal  0.000000e+00  0.000000e+00  1.000000e+00
   outer loop
     vertex  5.168409e+00  1.282939e+01  2.000000e+00
     vertex  0.000000e+00  0.000000e+00  2.000000e+00
     vertex  5.228965e+00  1.254514e+01  2.000000e+00
   endloop
 endfacet
 facet normal  0.000000e+00  0.000000e+00  1.000000e+00
   outer loop
     vertex  1.236919e+01  5.711291e+00  2.000000e+00
     vertex  1.208427e+01  5.768560e+00  2.000000e+00
     vertex  0.000000e+00  0.000000e+00  2.000000e+00
   endloop
 endfacet
 facet normal  0.000000e+00  0.000000e+00  1.000000e+00
   outer loop
     vertex  5.117063e+00  1.311544e+01  2.000000e+00
     vertex  0.000000e+00  0.000000e+00  2.000000e+00
     vertex  5.168409e+00  1.282939e+01  2.000000e+00
   endloop
 endfacet
 facet normal  0.000000e+00  0.000000e+00  1.000000e+00
   outer loop
     vertex  1.265581e+01  5.663252e+00  2.000000e+00
     vertex  1.236919e+01  5.711291e+00  2.000000e+00
     vertex  0.000000e+00  0.000000e+00  2.000000e+00
   endloop
 endfacet
 facet normal  0.000000e+00  0.000000e+00  1.000000e+00
   outer loop
     vertex  5.074979e+00  1.340300e+01  2.000000e+00
     vertex  0.000000e+00  0.000000e+00  2.000000e+00
     vertex  5.117063e+00  1.311544e+01  2.000000e+00
   endloop
 endfacet
 facet normal  0.000000e+00  0.000000e+00  1.000000e+00
   outer loop
     vertex  1.294384e+01  5.624491e+00  2.000000e+00
     vertex  1.265581e+01  5.663252e+00  2.000000e+00
     vertex  0.000000e+00  0.000000e+00  2.000000e+00
   endloop
 endfacet
 facet normal  0.000000e+00  0.000000e+00  1.000000e+00
   outer loop
     vertex  5.042201e+00  1.369176e+01  2.000000e+00
     vertex  0.000000e+00  0.000000e+00  2.000000e+00
     vertex  5.074979e+00  1.340300e+01  2.000000e+00
   endloop
 endfacet
 facet normal  0.000000e+00  0.000000e+00  1.000000e+00
   outer loop
     vertex  1.323297e+01  5.595051e+00  2.000000e+00
     vertex  1.294384e+01  5.624491e+00  2.000000e+00
     vertex  0.000000e+00  0.000000e+00  2.000000e+00
   endloop
 endfacet
 facet normal  0.000000e+00  0.000000e+00  1.000000e+00
   outer loop
     vertex  5.018764e+00  1.398144e+01  2.000000e+00
     vertex  0.000000e+00  0.000000e+00  2.000000e+00
     vertex  5.042201e+00  1.369176e+01  2.000000e+00
   endloop
 endfacet
 facet normal  0.000000e+00  0.000000e+00  1.000000e+00
   outer loop
     vertex  1.352289e+01  5.574961e+00  2.000000e+00
     vertex  1.323297e+01  5.595051e+00  2.000000e+00
     vertex  0.000000e+00  0.000000e+00  2.000000e+00
   endloop
 endfacet
 facet normal  0.000000e+00  0.000000e+00  1.000000e+00
   outer loop
     vertex  5.004692e+00  1.427172e+01  2.000000e+00
     vertex  0.000000e+00  0.000000e+00  2.000000e+00
     vertex  5.018764e+00  1.398144e+01  2.000000e+00
   endloop
 endfacet
 facet normal  0.000000e+00  0.000000e+00  1.000000e+00
   outer loop
     vertex  1.381332e+01  5.564242e+00  2.000000e+00
     vertex  1.352289e+01  5.574961e+00  2.000000e+00
     vertex  0.000000e+00  0.000000e+00  2.000000e+00
   endloop
 endfacet
 facet normal  0.000000e+00  0.000000e+00  1.000000e+00
   outer loop
     vertex  5.000000e+00  1.456231e+01  2.000000e+00
     vertex  0.000000e+00  0.000000e+00  2.000000e+00
     vertex  5.004692e+00  1.427172e+01  2.000000e+00
   endloop
 endfacet
 facet normal  0.000000e+00  0.000000e+00  1.000000e+00
   outer loop
     vertex  1.410394e+01  5.562906e+00  2.000000e+00
     vertex  1.381332e+01  5.564242e+00  2.000000e+00
     vertex  0.000000e+00  0.000000e+00  2.000000e+00
   endloop
 endfacet
 facet normal  0.000000e+00  0.000000e+00  1.000000e+00
   outer loop
     vertex  1.439445e+01  5.570954e+00  2.000000e+00
     vertex  1.410394e+01  5.562906e+00  2.000000e+00
     vertex  0.000000e+00  0.000000e+00  2.000000e+00
   endloop
 endfacet
 facet normal  0.000000e+00  0.000000e+00  1.000000e+00
   outer loop
     vertex  1.468455e+01  5.588377e+00  2.000000e+00
     vertex  1.439445e+01  5.570954e+00  2.000000e+00
     vertex  0.000000e+00  0.000000e+00  2.000000e+00
   endloop
 endfacet
 facet normal  0.000000e+00  0.000000e+00  1.000000e+00
   outer loop
     vertex  1.497393e+01  5.615158e+00  2.000000e+00
     vertex  1.468455e+01  5.588377e+00  2.000000e+00
     vertex  0.000000e+00  0.000000e+00  2.000000e+00
   endloop
 endfacet
 facet normal  0.000000e+00  0.000000e+00  1.000000e+00
   outer loop
     vertex  1.526230e+01  5.651268e+00  2.000000e+00
     vertex  1.497393e+01  5.615158e+00  2.000000e+00
     vertex  0.000000e+00  0.000000e+00  2.000000e+00
   endloop
 endfacet
 facet normal  0.000000e+00  0.000000e+00  1.000000e+00
   outer loop
     vertex  1.554936e+01  5.696671e+00  2.000000e+00
     vertex  1.526230e+01  5.651268e+00  2.000000e+00
     vertex  0.000000e+00  0.000000e+00  2.000000e+00
   endloop
 endfacet
 facet normal  0.000000e+00  0.000000e+00  1.000000e+00
   outer loop
     vertex  1.583480e+01  5.751317e+00  2.000000e+00
     vertex  1.554936e+01  5.696671e+00  2.000000e+00
     vertex  0.000000e+00  0.000000e+00  2.000000e+00
   endloop
 endfacet
 facet normal  0.000000e+00  0.000000e+00  1.000000e+00
   outer loop
     vertex  0.000000e+00  4.500000e+01  2.000000e+00
     vertex  5.000000e+00  1.456231e+01  2.000000e+00
     vertex  5.000000e+00  3.900000e+01  2.000000e+00
   endloop
 endfacet
 facet normal  0.000000e+00  0.000000e+00  1.000000e+00
   outer loop
     vertex  0.000000e+00  4.500000e+01  2.000000e+00
     vertex  0.000000e+00  0.000000e+00  2.000000e+00
     vertex  5.000000e+00  1.456231e+01  2.000000e+00
   endloop
 endfacet
 facet normal  0.000000e+00  0.000000e+00  1.000000e+00
   outer loop
     vertex  6.000000e+01  0.000000e+00  2.000000e+00
     vertex  3.100000e+01  1.300000e+01  2.000000e+00
     vertex  1.802492e+01  6.512461e+00  2.000000e+00
   endloop
 endfacet
 facet normal  0.000000e+00  0.000000e+00  1.000000e+00
   outer loop
     vertex  6.000000e+01  0.000000e+00  2.000000e+00
     vertex  1.802492e+01  6.512461e+00  2.000000e+00
     vertex  1.776292e+01  6.386705e+00  2.000000e+00
   endloop
 endfacet
 facet normal  0.000000e+00  0.000000e+00  1.000000e+00
   outer loop
     vertex  6.000000e+01  0.000000e+00  2.000000e+00
     vertex  1.776292e+01  6.386705e+00  2.000000e+00
     vertex  1.749699e+01  6.269473e+00  2.000000e+00
   endloop
 endfacet
 facet normal  0.000000e+00  0.000000e+00  1.000000e+00
   outer loop
     vertex  6.000000e+01  0.000000e+00  2.000000e+00
     vertex  1.749699e+01  6.269473e+00  2.000000e+00
     vertex  1.722741e+01  6.160889e+00  2.000000e+00
   endloop
 endfacet
 facet normal  0.000000e+00  0.000000e+00  1.000000e+00
   outer loop
     vertex  6.000000e+01  0.000000e+00  2.000000e+00
     vertex  1.722741e+01  6.160889e+00  2.000000e+00
     vertex  1.695447e+01  6.061065e+00  2.000000e+00
   endloop
 endfacet
 facet normal  0.000000e+00  0.000000e+00  1.000000e+00
   outer loop
     vertex  6.000000e+01  0.000000e+00  2.000000e+00
     vertex  1.695447e+01  6.061065e+00  2.000000e+00
     vertex  1.667845e+01  5.970106e+00  2.000000e+00
   endloop
 endfacet
 facet normal  0.000000e+00  0.000000e+00  1.000000e+00
   outer loop
     vertex  6.000000e+01  0.000000e+00  2.000000e+00
     vertex  1.667845e+01  5.970106e+00  2.000000e+00
     vertex  1.639964e+01  5.888106e+00  2.000000e+00
   endloop
 endfacet
 facet normal  0.000000e+00  0.000000e+00  1.000000e+00
   outer loop
     vertex  6.000000e+01  0.000000e+00  2.000000e+00
     vertex  1.639964e+01  5.888106e+00  2.000000e+00
     vertex  1.611832e+01  5.815151e+00  2.000000e+00
   endloop
 endfacet
 facet normal  0.000000e+00  0.000000e+00  1.000000e+00
   outer loop
     vertex  6.000000e+01  0.000000e+00  2.000000e+00
     vertex  1.611832e+01  5.815151e+00  2.000000e+00
     vertex  1.583480e+01  5.751317e+00  2.000000e+00
   endloop
 endfacet
 facet normal  0.000000e+00  0.000000e+00  1.000000e+00
   outer loop
     vertex  6.000000e+01  0.000000e+00  2.000000e+00
     vertex  1.583480e+01  5.751317e+00  2.000000e+00
     vertex  0.000000e+00  0.000000e+00  2.000000e+00
   endloop
 endfacet
 facet normal  0.000000e+00  0.000000e+00  1.000000e+00
   outer loop
     vertex  6.000000e+01  1.300000e+01  2.000000e+00
     vertex  3.100000e+01  1.300000e+01  2.000000e+00
     vertex  6.000000e+01  0.000000e+00  2.000000e+00
   endloop
 endfacet
 facet normal  0.000000e+00  0.000000e+00  1.000000e+00
   outer loop
     vertex  6.000000e+01  4.500000e+01  2.000000e+00
     vertex  0.000000e+00  4.500000e+01  2.000000e+00
     vertex  5.000000e+00  3.900000e+01  2.000000e+00
   endloop
 endfacet
 facet normal  0.000000e+00  0.000000e+00  1.000000e+00
   outer loop
     vertex  6.000000e+01  4.500000e+01  2.000000e+00
     vertex  5.000000e+00  3.900000e+01  2.000000e+00
     vertex  6.000000e+01  3.900000e+01  2.000000e+00
   endloop
 endfacet
 facet normal  0.000000e+00  1.000000e+00  0.000000e+00
   outer loop
     vertex  6.000000e+01  4.500000e+01  2.000000e+00
     vertex  6.000000e+01  4.500000e+01  0.000000e+00
     vertex  0.000000e+00  4.500000e+01  0.000000e+00
   endloop
 endfacet
 facet normal  0.000000e+00  1.000000e+00  0.000000e+00
   outer loop
     vertex  6.000000e+01  4.500000e+01  2.000000e+00
     vertex  0.000000e+00  4.500000e+01  0.000000e+00
     vertex  0.000000e+00  4.500000e+01  2.000000e+00
   endloop
 endfacet
 facet normal -0.000000e+00  0.000000e+00 -1.000000e+00
   outer loop
     vertex  7.777060e+00  8.060382e+00  0.000000e+00
     vertex  0.000000e+00  0.000000e+00  0.000000e+00
     vertex  7.570376e+00  8.264692e+00  0.000000e+00
   endloop
 endfacet
 facet normal  0.000000e+00 -0.000000e+00 -1.000000e+00
   outer loop
     vertex  7.370396e+00  8.475570e+00  0.000000e+00
     vertex  7.570376e+00  8.264692e+00  0.000000e+00
     vertex  0.000000e+00  0.000000e+00  0.000000e+00
   endloop
 endfacet
 facet normal -0.000000e+00  0.000000e+00 -1.000000e+00
   outer loop
     vertex  7.990233e+00  7.862850e+00  0.000000e+00
     vertex  0.000000e+00  0.000000e+00  0.000000e+00
     vertex  7.777060e+00  8.060382e+00  0.000000e+00
   endloop
 endfacet
 facet normal  0.000000e+00 -0.000000e+00 -1.000000e+00
   outer loop
     vertex  7.177329e+00  8.692794e+00  0.000000e+00
     vertex  7.370396e+00  8.475570e+00  0.000000e+00
     vertex  0.000000e+00  0.000000e+00  0.000000e+00
   endloop
 endfacet
 facet normal -0.000000e+00  0.000000e+00 -1.000000e+00
   outer loop
     vertex  8.209673e+00  7.672305e+00  0.000000e+00
     vertex  0.000000e+00  0.000000e+00  0.000000e+00
     vertex  7.990233e+00  7.862850e+00  0.000000e+00
   endloop
 endfacet
 facet normal  0.000000e+00 -0.000000e+00 -1.000000e+00
   outer loop
     vertex  6.991377e+00  8.916139e+00  0.000000e+00
     vertex  7.177329e+00  8.692794e+00  0.000000e+00
     vertex  0.000000e+00  0.000000e+00  0.000000e+00
   endloop
 endfacet
 facet normal -0.000000e+00  0.000000e+00 -1.000000e+00
   outer loop
     vertex  8.435150e+00  7.488944e+00  0.000000e+00
     vertex  0.000000e+00  0.000000e+00  0.000000e+00
     vertex  8.209673e+00  7.672305e+00  0.000000e+00
   endloop
 endfacet
 facet normal  0.000000e+00 -0.000000e+00 -1.000000e+00
   outer loop
     vertex  6.812732e+00  9.145371e+00  0.000000e+00
     vertex  6.991377e+00  8.916139e+00  0.000000e+00
     vertex  0.000000e+00  0.000000e+00  0.000000e+00
   endloop
 endfacet
 facet normal -0.000000e+00  0.000000e+00 -1.000000e+00
   outer loop
     vertex  8.666430e+00  7.312959e+00  0.000000e+00
     vertex  0.000000e+00  0.000000e+00  0.000000e+00
     vertex  8.435150e+00  7.488944e+00  0.000000e+00
   endloop
 endfacet
 facet normal  0.000000e+00 -0.000000e+00 -1.000000e+00
   outer loop
     vertex  6.641582e+00  9.380252e+00  0.000000e+00
     vertex  6.812732e+00  9.145371e+00  0.000000e+00
     vertex  0.000000e+00  0.000000e+00  0.000000e+00
   endloop
 endfacet
 facet normal -0.000000e+00  0.000000e+00 -1.000000e+00
   outer loop
     vertex  8.903272e+00  7.144533e+00  0.000000e+00
     vertex  0.000000e+00  0.000000e+00  0.000000e+00
     vertex  8.666430e+00  7.312959e+00  0.000000e+00
   endloop
 endfacet
 facet normal  0.000000e+00 -0.000000e+00 -1.000000e+00
   outer loop
     vertex  6.478105e+00  9.620536e+00  0.000000e+00
     vertex  6.641582e+00  9.380252e+00  0.000000e+00
     vertex  0.000000e+00  0.000000e+00  0.000000e+00
   endloop
 endfacet
 facet normal -0.000000e+00  0.000000e+00 -1.000000e+00
   outer loop
     vertex  9.145428e+00  6.983841e+00  0.000000e+00
     vertex  0.000000e+00  0.000000e+00  0.000000e+00
     vertex  8.903272e+00  7.144533e+00  0.000000e+00
   endloop
 endfacet
 facet normal  0.000000e+00 -0.000000e+00 -1.000000e+00
   outer loop
     vertex  6.322471e+00  9.865973e+00  0.000000e+00
     vertex  6.478105e+00  9.620536e+00  0.000000e+00
     vertex  0.000000e+00  0.000000e+00  0.000000e+00
   endloop
 endfacet
 facet normal -0.000000e+00  0.000000e+00 -1.000000e+00
   outer loop
     vertex  9.392646e+00  6.831052e+00  0.000000e+00
     vertex  0.000000e+00  0.000000e+00  0.000000e+00
     vertex  9.145428e+00  6.983841e+00  0.000000e+00
   endloop
 endfacet
 facet normal  0.000000e+00 -0.000000e+00 -1.000000e+00
   outer loop
     vertex  6.174842e+00  1.011631e+01  0.000000e+00
     vertex  6.322471e+00  9.865973e+00  0.000000e+00
     vertex  0.000000e+00  0.000000e+00  0.000000e+00
   endloop
 endfacet
 facet normal -0.000000e+00  0.000000e+00 -1.000000e+00
   outer loop
     vertex  9.644668e+00  6.686324e+00  0.000000e+00
     vertex  0.000000e+00  0.000000e+00  0.000000e+00
     vertex  9.392646e+00  6.831052e+00  0.000000e+00
   endloop
 endfacet
 facet normal  0.000000e+00 -0.000000e+00 -1.000000e+00
   outer loop
     vertex  6.035373e+00  1.037128e+01  0.000000e+00
     vertex  6.174842e+00  1.011631e+01  0.000000e+00
     vertex  0.000000e+00  0.000000e+00  0.000000e+00
   endloop
 endfacet
 facet normal -0.000000e+00  0.000000e+00 -1.000000e+00
   outer loop
     vertex  9.901232e+00  6.549809e+00  0.000000e+00
     vertex  0.000000e+00  0.000000e+00  0.000000e+00
     vertex  9.644668e+00  6.686324e+00  0.000000e+00
   endloop
 endfacet
 facet normal  0.000000e+00 -0.000000e+00 -1.000000e+00
   outer loop
     vertex  5.904209e+00  1.063062e+01  0.000000e+00
     vertex  6.035373e+00  1.037128e+01  0.000000e+00
     vertex  0.000000e+00  0.000000e+00  0.000000e+00
   endloop
 endfacet
 facet normal -0.000000e+00  0.000000e+00 -1.000000e+00
   outer loop
     vertex  1.016207e+01  6.421649e+00  0.000000e+00
     vertex  0.000000e+00  0.000000e+00  0.000000e+00
     vertex  9.901232e+00  6.549809e+00  0.000000e+00
   endloop
 endfacet
 facet normal  0.000000e+00 -0.000000e+00 -1.000000e+00
   outer loop
     vertex  5.781487e+00  1.089406e+01  0.000000e+00
     vertex  5.904209e+00  1.063062e+01  0.000000e+00
     vertex  0.000000e+00  0.000000e+00  0.000000e+00
   endloop
 endfacet
 facet normal -0.000000e+00  0.000000e+00 -1.000000e+00
   outer loop
     vertex  1.042691e+01  6.301978e+00  0.000000e+00
     vertex  0.000000e+00  0.000000e+00  0.000000e+00
     vertex  1.016207e+01  6.421649e+00  0.000000e+00
   endloop
 endfacet
 facet normal  0.000000e+00 -0.000000e+00 -1.000000e+00
   outer loop
     vertex  5.667335e+00  1.116132e+01  0.000000e+00
     vertex  5.781487e+00  1.089406e+01  0.000000e+00
     vertex  0.000000e+00  0.000000e+00  0.000000e+00
   endloop
 endfacet
 facet normal -0.000000e+00  0.000000e+00 -1.000000e+00
   outer loop
     vertex  1.069547e+01  6.190920e+00  0.000000e+00
     vertex  0.000000e+00  0.000000e+00  0.000000e+00
     vertex  1.042691e+01  6.301978e+00  0.000000e+00
   endloop
 endfacet
 facet normal  0.000000e+00 -0.000000e+00 -1.000000e+00
   outer loop
     vertex  5.561871e+00  1.143213e+01  0.000000e+00
     vertex  5.667335e+00  1.116132e+01  0.000000e+00
     vertex  0.000000e+00  0.000000e+00  0.000000e+00
   endloop
 endfacet
 facet normal -0.000000e+00  0.000000e+00 -1.000000e+00
   outer loop
     vertex  1.096749e+01  6.088590e+00  0.000000e+00
     vertex  0.000000e+00  0.000000e+00  0.000000e+00
     vertex  1.069547e+01  6.190920e+00  0.000000e+00
   endloop
 endfacet
 facet normal  0.000000e+00 -0.000000e+00 -1.000000e+00
   outer loop
     vertex  5.465206e+00  1.170621e+01  0.000000e+00
     vertex  5.561871e+00  1.143213e+01  0.000000e+00
     vertex  0.000000e+00  0.000000e+00  0.000000e+00
   endloop
 endfacet
 facet normal -0.000000e+00  0.000000e+00 -1.000000e+00
   outer loop
     vertex  1.124266e+01  5.995097e+00  0.000000e+00
     vertex  0.000000e+00  0.000000e+00  0.000000e+00
     vertex  1.096749e+01  6.088590e+00  0.000000e+00
   endloop
 endfacet
 facet normal  0.000000e+00 -0.000000e+00 -1.000000e+00
   outer loop
     vertex  5.377441e+00  1.198326e+01  0.000000e+00
     vertex  5.465206e+00  1.170621e+01  0.000000e+00
     vertex  0.000000e+00  0.000000e+00  0.000000e+00
   endloop
 endfacet
 facet normal -0.000000e+00  0.000000e+00 -1.000000e+00
   outer loop
     vertex  1.152071e+01  5.910537e+00  0.000000e+00
     vertex  0.000000e+00  0.000000e+00  0.000000e+00
     vertex  1.124266e+01  5.995097e+00  0.000000e+00
   endloop
 endfacet
 facet normal  0.000000e+00 -0.000000e+00 -1.000000e+00
   outer loop
     vertex  5.298666e+00  1.226300e+01  0.000000e+00
     vertex  5.377441e+00  1.198326e+01  0.000000e+00
     vertex  0.000000e+00  0.000000e+00  0.000000e+00
   endloop
 endfacet
 facet normal -0.000000e+00  0.000000e+00 -1.000000e+00
   outer loop
     vertex  1.180134e+01  5.834998e+00  0.000000e+00
     vertex  0.000000e+00  0.000000e+00  0.000000e+00
     vertex  1.152071e+01  5.910537e+00  0.000000e+00
   endloop
 endfacet
 facet normal  0.000000e+00 -0.000000e+00 -1.000000e+00
   outer loop
     vertex  5.228965e+00  1.254514e+01  0.000000e+00
     vertex  5.298666e+00  1.226300e+01  0.000000e+00
     vertex  0.000000e+00  0.000000e+00  0.000000e+00
   endloop
 endfacet
 facet normal -0.000000e+00  0.000000e+00 -1.000000e+00
   outer loop
     vertex  1.208427e+01  5.768560e+00  0.000000e+00
     vertex  0.000000e+00  0.000000e+00  0.000000e+00
     vertex  1.180134e+01  5.834998e+00  0.000000e+00
   endloop
 endfacet
 facet normal  0.000000e+00 -0.000000e+00 -1.000000e+00
   outer loop
     vertex  5.168409e+00  1.282939e+01  0.000000e+00
     vertex  5.228965e+00  1.254514e+01  0.000000e+00
     vertex  0.000000e+00  0.000000e+00  0.000000e+00
   endloop
 endfacet
 facet normal -0.000000e+00  0.000000e+00 -1.000000e+00
   outer loop
     vertex  1.236919e+01  5.711291e+00  0.000000e+00
     vertex  0.000000e+00  0.000000e+00  0.000000e+00
     vertex  1.208427e+01  5.768560e+00  0.000000e+00
   endloop
 endfacet
 facet normal  0.000000e+00 -0.000000e+00 -1.000000e+00
   outer loop
     vertex  5.117063e+00  1.311544e+01  0.000000e+00
     vertex  5.168409e+00  1.282939e+01  0.000000e+00
     vertex  0.000000e+00  0.000000e+00  0.000000e+00
   endloop
 endfacet
 facet normal -0.000000e+00  0.000000e+00 -1.000000e+00
   outer loop
     vertex  1.265581e+01  5.663252e+00  0.000000e+00
     vertex  0.000000e+00  0.000000e+00  0.000000e+00
     vertex  1.236919e+01  5.711291e+00  0.000000e+00
   endloop
 endfacet
 facet normal  0.000000e+00 -0.000000e+00 -1.000000e+00
   outer loop
     vertex  5.074979e+00  1.340300e+01  0.000000e+00
     vertex  5.117063e+00  1.311544e+01  0.000000e+00
     vertex  0.000000e+00  0.000000e+00  0.000000e+00
   endloop
 endfacet
 facet normal -0.000000e+00  0.000000e+00 -1.000000e+00
   outer loop
     vertex  1.294384e+01  5.624491e+00  0.000000e+00
     vertex  0.000000e+00  0.000000e+00  0.000000e+00
     vertex  1.265581e+01  5.663252e+00  0.000000e+00
   endloop
 endfacet
 facet normal  0.000000e+00 -0.000000e+00 -1.000000e+00
   outer loop
     vertex  5.042201e+00  1.369176e+01  0.000000e+00
     vertex  5.074979e+00  1.340300e+01  0.000000e+00
     vertex  0.000000e+00  0.000000e+00  0.000000e+00
   endloop
 endfacet
 facet normal -0.000000e+00  0.000000e+00 -1.000000e+00
   outer loop
     vertex  1.323297e+01  5.595051e+00  0.000000e+00
     vertex  0.000000e+00  0.000000e+00  0.000000e+00
     vertex  1.294384e+01  5.624491e+00  0.000000e+00
   endloop
 endfacet
 facet normal  0.000000e+00 -0.000000e+00 -1.000000e+00
   outer loop
     vertex  5.018764e+00  1.398144e+01  0.000000e+00
     vertex  5.042201e+00  1.369176e+01  0.000000e+00
     vertex  0.000000e+00  0.000000e+00  0.000000e+00
   endloop
 endfacet
 facet normal -0.000000e+00  0.000000e+00 -1.000000e+00
   outer loop
     vertex  1.352289e+01  5.574961e+00  0.000000e+00
     vertex  0.000000e+00  0.000000e+00  0.000000e+00
     vertex  1.323297e+01  5.595051e+00  0.000000e+00
   endloop
 endfacet
 facet normal  0.000000e+00 -0.000000e+00 -1.000000e+00
   outer loop
     vertex  5.004692e+00  1.427172e+01  0.000000e+00
     vertex  5.018764e+00  1.398144e+01  0.000000e+00
     vertex  0.000000e+00  0.000000e+00  0.000000e+00
   endloop
 endfacet
 facet normal -0.000000e+00  0.000000e+00 -1.000000e+00
   outer loop
     vertex  1.381332e+01  5.564242e+00  0.000000e+00
     vertex  0.000000e+00  0.000000e+00  0.000000e+00
     vertex  1.352289e+01  5.574961e+00  0.000000e+00
   endloop
 endfacet
 facet normal  0.000000e+00 -0.000000e+00 -1.000000e+00
   outer loop
     vertex  5.000000e+00  1.456231e+01  0.000000e+00
     vertex  5.004692e+00  1.427172e+01  0.000000e+00
     vertex  0.000000e+00  0.000000e+00  0.000000e+00
   endloop
 endfacet
 facet normal -0.000000e+00  0.000000e+00 -1.000000e+00
   outer loop
     vertex  1.410394e+01  5.562906e+00  0.000000e+00
     vertex  0.000000e+00  0.000000e+00  0.000000e+00
     vertex  1.381332e+01  5.564242e+00  0.000000e+00
   endloop
 endfacet
 facet normal  0.000000e+00  0.000000e+00 -1.000000e+00
   outer loop
     vertex  1.439445e+01  5.570954e+00  0.000000e+00
     vertex  0.000000e+00  0.000000e+00  0.000000e+00
     vertex  1.410394e+01  5.562906e+00  0.000000e+00
   endloop
 endfacet
 facet normal  0.000000e+00  0.000000e+00 -1.000000e+00
   outer loop
     vertex  1.468455e+01  5.588377e+00  0.000000e+00
     vertex  0.000000e+00  0.000000e+00  0.000000e+00
     vertex  1.439445e+01  5.570954e+00  0.000000e+00
   endloop
 endfacet
 facet normal  0.000000e+00  0.000000e+00 -1.000000e+00
   outer loop
     vertex  1.497393e+01  5.615158e+00  0.000000e+00
     vertex  0.000000e+00  0.000000e+00  0.000000e+00
     vertex  1.468455e+01  5.588377e+00  0.000000e+00
   endloop
 endfacet
 facet normal  0.000000e+00  0.000000e+00 -1.000000e+00
   outer loop
     vertex  1.526230e+01  5.651268e+00  0.000000e+00
     vertex  0.000000e+00  0.000000e+00  0.000000e+00
     vertex  1.497393e+01  5.615158e+00  0.000000e+00
   endloop
 endfacet
 facet normal  0.000000e+00  0.000000e+00 -1.000000e+00
   outer loop
     vertex  1.554936e+01  5.696671e+00  0.000000e+00
     vertex  0.000000e+00  0.000000e+00  0.000000e+00
     vertex  1.526230e+01  5.651268e+00  0.000000e+00
   endloop
 endfacet
 facet normal  0.000000e+00  0.000000e+00 -1.000000e+00
   outer loop
     vertex  1.583480e+01  5.751317e+00  0.000000e+00
     vertex  0.000000e+00  0.000000e+00  0.000000e+00
     vertex  1.554936e+01  5.696671e+00  0.000000e+00
   endloop
 endfacet
 facet normal  0.000000e+00  0.000000e+00 -1.000000e+00
   outer loop
     vertex  0.000000e+00  4.500000e+01  0.000000e+00
     vertex  5.000000e+00  3.900000e+01  0.000000e+00
     vertex  5.000000e+00  1.456231e+01  0.000000e+00
   endloop
 endfacet
 facet normal  0.000000e+00  0.000000e+00 -1.000000e+00
   outer loop
     vertex  0.000000e+00  4.500000e+01  0.000000e+00
     vertex  5.000000e+00  1.456231e+01  0.000000e+00
     vertex  0.000000e+00  0.000000e+00  0.000000e+00
   endloop
 endfacet
 facet normal  0.000000e+00  0.000000e+00 -1.000000e+00
   outer loop
     vertex  6.000000e+01  0.000000e+00  0.000000e+00
     vertex  1.802492e+01  6.512461e+00  0.000000e+00
     vertex  3.100000e+01  1.300000e+01  0.000000e+00
   endloop
 endfacet
 facet normal  0.000000e+00  0.000000e+00 -1.000000e+00
   outer loop
     vertex  6.000000e+01  0.000000e+00  0.000000e+00
     vertex  1.776292e+01  6.386705e+00  0.000000e+00
     vertex  1.802492e+01  6.512461e+00  0.000000e+00
   endloop
 endfacet
 facet normal  0.000000e+00  0.000000e+00 -1.000000e+00
   outer loop
     vertex  6.000000e+01  0.000000e+00  0.000000e+00
     vertex  1.749699e+01  6.269473e+00  0.000000e+00
     vertex  1.776292e+01  6.386705e+00  0.000000e+00
   endloop
 endfacet
 facet normal  0.000000e+00  0.000000e+00 -1.000000e+00
   outer loop
     vertex  6.000000e+01  0.000000e+00  0.000000e+00
     vertex  1.722741e+01  6.160889e+00  0.000000e+00
     vertex  1.749699e+01  6.269473e+00  0.000000e+00
   endloop
 endfacet
 facet normal  0.000000e+00  0.000000e+00 -1.000000e+00
   outer loop
     vertex  6.000000e+01  0.000000e+00  0.000000e+00
     vertex  1.695447e+01  6.061065e+00  0.000000e+00
     vertex  1.722741e+01  6.160889e+00  0.000000e+00
   endloop
 endfacet
 facet normal  0.000000e+00  0.000000e+00 -1.000000e+00
   outer loop
     vertex  6.000000e+01  0.000000e+00  0.000000e+00
     vertex  1.667845e+01  5.970106e+00  0.000000e+00
     vertex  1.695447e+01  6.061065e+00  0.000000e+00
   endloop
 endfacet
 facet normal  0.000000e+00  0.000000e+00 -1.000000e+00
   outer loop
     vertex  6.000000e+01  0.000000e+00  0.000000e+00
     vertex  1.639964e+01  5.888106e+00  0.000000e+00
     vertex  1.667845e+01  5.970106e+00  0.000000e+00
   endloop
 endfacet
 facet normal  0.000000e+00  0.000000e+00 -1.000000e+00
   outer loop
     vertex  6.000000e+01  0.000000e+00  0.000000e+00
     vertex  1.611832e+01  5.815151e+00  0.000000e+00
     vertex  1.639964e+01  5.888106e+00  0.000000e+00
   endloop
 endfacet
 facet normal  0.000000e+00  0.000000e+00 -1.000000e+00
   outer loop
     vertex  6.000000e+01  0.000000e+00  0.000000e+00
     vertex  1.583480e+01  5.751317e+00  0.000000e+00
     vertex  1.611832e+01  5.815151e+00  0.000000e+00
   endloop
 endfacet
 facet normal  0.000000e+00  0.000000e+00 -1.000000e+00
   outer loop
     vertex  6.000000e+01  0.000000e+00  0.000000e+00
     vertex  0.000000e+00  0.000000e+00  0.000000e+00
     vertex  1.583480e+01  5.751317e+00  0.000000e+00
   endloop
 endfacet
 facet normal -0.000000e+00 -0.000000e+00 -1.000000e+00
   outer loop
     vertex  6.000000e+01  1.300000e+01  0.000000e+00
     vertex  6.000000e+01  0.000000e+00  0.000000e+00
     vertex  3.100000e+01  1.300000e+01  0.000000e+00
   endloop
 endfacet
 facet normal -0.000000e+00  0.000000e+00 -1.000000e+00
   outer loop
     vertex  6.000000e+01  4.500000e+01  0.000000e+00
     vertex  5.000000e+00  3.900000e+01  0.000000e+00
     vertex  0.000000e+00  4.500000e+01  0.000000e+00
   endloop
 endfacet
 facet normal  0.000000e+00 -0.000000e+00 -1.000000e+00
   outer loop
     vertex  6.000000e+01  4.500000e+01  0.000000e+00
     vertex  6.000000e+01  3.900000e+01  0.000000e+00
     vertex  5.000000e+00  3.900000e+01  0.000000e+00
   endloop
 endfacet
 facet normal  1.000000e+00  0.000000e+00  0.000000e+00
   outer loop
     vertex  6.000000e+01  0.000000e+00  2.000000e+00
     vertex  6.000000e+01  0.000000e+00  0.000000e+00
     vertex  6.000000e+01  1.300000e+01  0.000000e+00
   endloop
 endfacet
 facet normal  1.000000e+00 -0.000000e+00  0.000000e+00
   outer loop
     vertex  6.000000e+01  0.000000e+00  2.000000e+00
     vertex  6.000000e+01  1.300000e+01  0.000000e+00
     vertex  6.000000e+01  1.300000e+01  2.000000e+00
   endloop
 endfacet
 facet normal  1.000000e+00  0.000000e+00  0.000000e+00
   outer loop
     vertex  6.000000e+01  3.900000e+01  2.000000e+00
     vertex  6.000000e+01  3.900000e+01  0.000000e+00
     vertex  6.000000e+01  4.500000e+01  0.000000e+00
   endloop
 endfacet
 facet normal  1.000000e+00 -0.000000e+00  0.000000e+00
   outer loop
     vertex  6.000000e+01  3.900000e+01  2.000000e+00
     vertex  6.000000e+01  4.500000e+01  0.000000e+00
     vertex  6.000000e+01  4.500000e+01  2.000000e+00
   endloop
 endfacet
 facet normal  0.000000e+00 -1.000000e+00  0.000000e+00
   outer loop
     vertex  5.000000e+00  3.900000e+01  0.000000e+00
     vertex  6.000000e+01  3.900000e+01  0.000000e+00
     vertex  6.000000e+01  3.900000e+01  2.000000e+00
   endloop
 endfacet
 facet normal  0.000000e+00 -1.000000e+00  0.000000e+00
   outer loop
     vertex  5.000000e+00  3.900000e+01  0.000000e+00
     vertex  6.000000e+01  3.900000e+01  2.000000e+00
     vertex  5.000000e+00  3.900000e+01  2.000000e+00
   endloop
 endfacet
 facet normal  1.000000e+00  0.000000e+00  0.000000e+00
   outer loop
     vertex  5.000000e+00  1.456231e+01  0.000000e+00
     vertex  5.000000e+00  3.900000e+01  0.000000e+00
     vertex  5.000000e+00  3.900000e+01  2.000000e+00
   endloop
 endfacet
 facet normal  1.000000e+00  0.000000e+00  0.000000e+00
   outer loop
     vertex  5.000000e+00  1.456231e+01  0.000000e+00
     vertex  5.000000e+00  3.900000e+01  2.000000e+00
     vertex  5.000000e+00  1.456231e+01  2.000000e+00
   endloop
 endfacet
 facet normal  9.998697e-01  1.614568e-02 -0.000000e+00
   outer loop
     vertex  5.004692e+00  1.427172e+01  0.000000e+00
     vertex  5.000000e+00  1.456231e+01  2.000000e+00
     vertex  5.004692e+00  1.427172e+01  2.000000e+00
   endloop
 endfacet
 facet normal  9.998697e-01  1.614568e-02  0.000000e+00
   outer loop
     vertex  5.004692e+00  1.427172e+01  0.000000e+00
     vertex  5.000000e+00  1.456231e+01  0.000000e+00
     vertex  5.000000e+00  1.456231e+01  2.000000e+00
   endloop
 endfacet
 facet normal  9.988271e-01  4.842020e-02 -0.000000e+00
   outer loop
     vertex  5.018764e+00  1.398144e+01  0.000000e+00
     vertex  5.004692e+00  1.427172e+01  2.000000e+00
     vertex  5.018764e+00  1.398144e+01  2.000000e+00
   endloop
 endfacet
 facet normal  9.988271e-01  4.842020e-02  0.000000e+00
   outer loop
     vertex  5.018764e+00  1.398144e+01  0.000000e+00
     vertex  5.004692e+00  1.427172e+01  0.000000e+00
     vertex  5.004692e+00  1.427172e+01  2.000000e+00
   endloop
 endfacet
 facet normal  9.967429e-01  8.064423e-02 -0.000000e+00
   outer loop
     vertex  5.042201e+00  1.369176e+01  0.000000e+00
     vertex  5.018764e+00  1.398144e+01  2.000000e+00
     vertex  5.042201e+00  1.369176e+01  2.000000e+00
   endloop
 endfacet
 facet normal  9.967429e-01  8.064423e-02  0.000000e+00
   outer loop
     vertex  5.042201e+00  1.369176e+01  0.000000e+00
     vertex  5.018764e+00  1.398144e+01  0.000000e+00
     vertex  5.018764e+00  1.398144e+01  2.000000e+00
   endloop
 endfacet
 facet normal  9.936195e-01  1.127842e-01 -0.000000e+00
   outer loop
     vertex  5.074979e+00  1.340300e+01  0.000000e+00
     vertex  5.042201e+00  1.369176e+01  2.000000e+00
     vertex  5.074979e+00  1.340300e+01  2.000000e+00
   endloop
 endfacet
 facet normal  9.936195e-01  1.127842e-01  0.000000e+00
   outer loop
     vertex  5.074979e+00  1.340300e+01  0.000000e+00
     vertex  5.042201e+00  1.369176e+01  0.000000e+00
     vertex  5.042201e+00  1.369176e+01  2.000000e+00
   endloop
 endfacet
 facet normal  9.894600e-01  1.448065e-01 -0.000000e+00
   outer loop
     vertex  5.117063e+00  1.311544e+01  0.000000e+00
     vertex  5.074979e+00  1.340300e+01  2.000000e+00
     vertex  5.117063e+00  1.311544e+01  2.000000e+00
   endloop
 endfacet
 facet normal  9.894600e-01  1.448065e-01  0.000000e+00
   outer loop
     vertex  5.117063e+00  1.311544e+01  0.000000e+00
     vertex  5.074979e+00  1.340300e+01  0.000000e+00
     vertex  5.074979e+00  1.340300e+01  2.000000e+00
   endloop
 endfacet
 facet normal  9.842687e-01  1.766779e-01 -0.000000e+00
   outer loop
     vertex  5.168409e+00  1.282939e+01  0.000000e+00
     vertex  5.117063e+00  1.311544e+01  2.000000e+00
     vertex  5.168409e+00  1.282939e+01  2.000000e+00
   endloop
 endfacet
 facet normal  9.842687e-01  1.766779e-01  0.000000e+00
   outer loop
     vertex  5.168409e+00  1.282939e+01  0.000000e+00
     vertex  5.117063e+00  1.311544e+01  0.000000e+00
     vertex  5.117063e+00  1.311544e+01  2.000000e+00
   endloop
 endfacet
 facet normal  9.780511e-01  2.083650e-01 -0.000000e+00
   outer loop
     vertex  5.228965e+00  1.254514e+01  0.000000e+00
     vertex  5.168409e+00  1.282939e+01  2.000000e+00
     vertex  5.228965e+00  1.254514e+01  2.000000e+00
   endloop
 endfacet
 facet normal  9.780511e-01  2.083650e-01  0.000000e+00
   outer loop
     vertex  5.228965e+00  1.254514e+01  0.000000e+00
     vertex  5.168409e+00  1.282939e+01  0.000000e+00
     vertex  5.168409e+00  1.282939e+01  2.000000e+00
   endloop
 endfacet
 facet normal  9.708137e-01  2.398348e-01 -0.000000e+00
   outer loop
     vertex  5.298666e+00  1.226300e+01  0.000000e+00
     vertex  5.228965e+00  1.254514e+01  2.000000e+00
     vertex  5.298666e+00  1.226300e+01  2.000000e+00
   endloop
 endfacet
 facet normal  9.708137e-01  2.398348e-01  0.000000e+00
   outer loop
     vertex  5.298666e+00  1.226300e+01  0.000000e+00
     vertex  5.228965e+00  1.254514e+01  0.000000e+00
     vertex  5.228965e+00  1.254514e+01  2.000000e+00
   endloop
 endfacet
 facet normal  9.625640e-01  2.710546e-01 -0.000000e+00
   outer loop
     vertex  5.377441e+00  1.198326e+01  0.000000e+00
     vertex  5.298666e+00  1.226300e+01  2.000000e+00
     vertex  5.377441e+00  1.198326e+01  2.000000e+00
   endloop
 endfacet
 facet normal  9.625640e-01  2.710546e-01  0.000000e+00
   outer loop
     vertex  5.377441e+00  1.198326e+01  0.000000e+00
     vertex  5.298666e+00  1.226300e+01  0.000000e+00
     vertex  5.298666e+00  1.226300e+01  2.000000e+00
   endloop
 endfacet
 facet normal  9.533105e-01  3.019917e-01 -0.000000e+00
   outer loop
     vertex  5.465206e+00  1.170621e+01  0.000000e+00
     vertex  5.377441e+00  1.198326e+01  2.000000e+00
     vertex  5.465206e+00  1.170621e+01  2.000000e+00
   endloop
 endfacet
 facet normal  9.533105e-01  3.019917e-01  0.000000e+00
   outer loop
     vertex  5.465206e+00  1.170621e+01  0.000000e+00
     vertex  5.377441e+00  1.198326e+01  0.000000e+00
     vertex  5.377441e+00  1.198326e+01  2.000000e+00
   endloop
 endfacet
 facet normal  9.430631e-01  3.326139e-01 -0.000000e+00
   outer loop
     vertex  5.561871e+00  1.143213e+01  0.000000e+00
     vertex  5.465206e+00  1.170621e+01  2.000000e+00
     vertex  5.561871e+00  1.143213e+01  2.000000e+00
   endloop
 endfacet
 facet normal  9.430631e-01  3.326139e-01  0.000000e+00
   outer loop
     vertex  5.561871e+00  1.143213e+01  0.000000e+00
     vertex  5.465206e+00  1.170621e+01  0.000000e+00
     vertex  5.465206e+00  1.170621e+01  2.000000e+00
   endloop
 endfacet
 facet normal  9.318322e-01  3.628894e-01 -0.000000e+00
   outer loop
     vertex  5.667335e+00  1.116132e+01  0.000000e+00
     vertex  5.561871e+00  1.143213e+01  2.000000e+00
     vertex  5.667335e+00  1.116132e+01  2.000000e+00
   endloop
 endfacet
 facet normal  9.318322e-01  3.628894e-01  0.000000e+00
   outer loop
     vertex  5.667335e+00  1.116132e+01  0.000000e+00
     vertex  5.561871e+00  1.143213e+01  0.000000e+00
     vertex  5.561871e+00  1.143213e+01  2.000000e+00
   endloop
 endfacet
 facet normal  9.196297e-01  3.927864e-01 -0.000000e+00
   outer loop
     vertex  5.781487e+00  1.089406e+01  0.000000e+00
     vertex  5.667335e+00  1.116132e+01  2.000000e+00
     vertex  5.781487e+00  1.089406e+01  2.000000e+00
   endloop
 endfacet
 facet normal  9.196297e-01  3.927864e-01  0.000000e+00
   outer loop
     vertex  5.781487e+00  1.089406e+01  0.000000e+00
     vertex  5.667335e+00  1.116132e+01  0.000000e+00
     vertex  5.667335e+00  1.116132e+01  2.000000e+00
   endloop
 endfacet
 facet normal  9.064683e-01  4.222738e-01 -0.000000e+00
   outer loop
     vertex  5.904209e+00  1.063062e+01  0.000000e+00
     vertex  5.781487e+00  1.089406e+01  2.000000e+00
     vertex  5.904209e+00  1.063062e+01  2.000000e+00
   endloop
 endfacet
 facet normal  9.064683e-01  4.222738e-01  0.000000e+00
   outer loop
     vertex  5.904209e+00  1.063062e+01  0.000000e+00
     vertex  5.781487e+00  1.089406e+01  0.000000e+00
     vertex  5.781487e+00  1.089406e+01  2.000000e+00
   endloop
 endfacet
 facet normal  8.923617e-01  4.513209e-01 -0.000000e+00
   outer loop
     vertex  6.035373e+00  1.037128e+01  0.000000e+00
     vertex  5.904209e+00  1.063062e+01  2.000000e+00
     vertex  6.035373e+00  1.037128e+01  2.000000e+00
   endloop
 endfacet
 facet normal  8.923617e-01  4.513209e-01  0.000000e+00
   outer loop
     vertex  6.035373e+00  1.037128e+01  0.000000e+00
     vertex  5.904209e+00  1.063062e+01  0.000000e+00
     vertex  5.904209e+00  1.063062e+01  2.000000e+00
   endloop
 endfacet
 facet normal  8.773246e-01  4.798974e-01 -0.000000e+00
   outer loop
     vertex  6.174842e+00  1.011631e+01  0.000000e+00
     vertex  6.035373e+00  1.037128e+01  2.000000e+00
     vertex  6.174842e+00  1.011631e+01  2.000000e+00
   endloop
 endfacet
 facet normal  8.773246e-01  4.798974e-01  0.000000e+00
   outer loop
     vertex  6.174842e+00  1.011631e+01  0.000000e+00
     vertex  6.035373e+00  1.037128e+01  0.000000e+00
     vertex  6.035373e+00  1.037128e+01  2.000000e+00
   endloop
 endfacet
 facet normal  8.613727e-01  5.079735e-01 -0.000000e+00
   outer loop
     vertex  6.322471e+00  9.865973e+00  0.000000e+00
     vertex  6.174842e+00  1.011631e+01  2.000000e+00
     vertex  6.322471e+00  9.865973e+00  2.000000e+00
   endloop
 endfacet
 facet normal  8.613727e-01  5.079735e-01  0.000000e+00
   outer loop
     vertex  6.322471e+00  9.865973e+00  0.000000e+00
     vertex  6.174842e+00  1.011631e+01  0.000000e+00
     vertex  6.174842e+00  1.011631e+01  2.000000e+00
   endloop
 endfacet
 facet normal  8.445226e-01  5.355200e-01 -0.000000e+00
   outer loop
     vertex  6.478105e+00  9.620536e+00  0.000000e+00
     vertex  6.322471e+00  9.865973e+00  2.000000e+00
     vertex  6.478105e+00  9.620536e+00  2.000000e+00
   endloop
 endfacet
 facet normal  8.445226e-01  5.355200e-01  0.000000e+00
   outer loop
     vertex  6.478105e+00  9.620536e+00  0.000000e+00
     vertex  6.322471e+00  9.865973e+00  0.000000e+00
     vertex  6.322471e+00  9.865973e+00  2.000000e+00
   endloop
 endfacet
 facet normal  8.267919e-01  5.625080e-01  0.000000e+00
   outer loop
     vertex  6.641582e+00  9.380252e+00  0.000000e+00
     vertex  6.478105e+00  9.620536e+00  0.000000e+00
     vertex  6.478105e+00  9.620536e+00  2.000000e+00
   endloop
 endfacet
 facet normal  8.267919e-01  5.625080e-01 -0.000000e+00
   outer loop
     vertex  6.641582e+00  9.380252e+00  0.000000e+00
     vertex  6.478105e+00  9.620536e+00  2.000000e+00
     vertex  6.641582e+00  9.380252e+00  2.000000e+00
   endloop
 endfacet
 facet normal  8.081990e-01  5.889095e-01 -0.000000e+00
   outer loop
     vertex  6.812732e+00  9.145371e+00  0.000000e+00
     vertex  6.641582e+00  9.380252e+00  2.000000e+00
     vertex  6.812732e+00  9.145371e+00  2.000000e+00
   endloop
 endfacet
 facet normal  8.081990e-01  5.889095e-01  0.000000e+00
   outer loop
     vertex  6.812732e+00  9.145371e+00  0.000000e+00
     vertex  6.641582e+00  9.380252e+00  0.000000e+00
     vertex  6.641582e+00  9.380252e+00  2.000000e+00
   endloop
 endfacet
 facet normal  7.887634e-01  6.146969e-01  0.000000e+00
   outer loop
     vertex  6.991377e+00  8.916139e+00  0.000000e+00
     vertex  6.812732e+00  9.145371e+00  0.000000e+00
     vertex  6.812732e+00  9.145371e+00  2.000000e+00
   endloop
 endfacet
 facet normal  7.887634e-01  6.146969e-01 -0.000000e+00
   outer loop
     vertex  6.991377e+00  8.916139e+00  0.000000e+00
     vertex  6.812732e+00  9.145371e+00  2.000000e+00
     vertex  6.991377e+00  8.916139e+00  2.000000e+00
   endloop
 endfacet
 facet normal  7.685054e-01  6.398433e-01  0.000000e+00
   outer loop
     vertex  7.177329e+00  8.692794e+00  0.000000e+00
     vertex  6.991377e+00  8.916139e+00  0.000000e+00
     vertex  6.991377e+00  8.916139e+00  2.000000e+00
   endloop
 endfacet
 facet normal  7.685054e-01  6.398433e-01 -0.000000e+00
   outer loop
     vertex  7.177329e+00  8.692794e+00  0.000000e+00
     vertex  6.991377e+00  8.916139e+00  2.000000e+00
     vertex  7.177329e+00  8.692794e+00  2.000000e+00
   endloop
 endfacet
 facet normal  7.474460e-01  6.643226e-01 -0.000000e+00
   outer loop
     vertex  7.370396e+00  8.475570e+00  0.000000e+00
     vertex  7.177329e+00  8.692794e+00  2.000000e+00
     vertex  7.370396e+00  8.475570e+00  2.000000e+00
   endloop
 endfacet
 facet normal  7.474460e-01  6.643226e-01  0.000000e+00
   outer loop
     vertex  7.370396e+00  8.475570e+00  0.000000e+00
     vertex  7.177329e+00  8.692794e+00  0.000000e+00
     vertex  7.177329e+00  8.692794e+00  2.000000e+00
   endloop
 endfacet
 facet normal  7.256072e-01  6.881091e-01 -0.000000e+00
   outer loop
     vertex  7.570376e+00  8.264692e+00  0.000000e+00
     vertex  7.370396e+00  8.475570e+00  2.000000e+00
     vertex  7.570376e+00  8.264692e+00  2.000000e+00
   endloop
 endfacet
 facet normal  7.256072e-01  6.881091e-01  0.000000e+00
   outer loop
     vertex  7.570376e+00  8.264692e+00  0.000000e+00
     vertex  7.370396e+00  8.475570e+00  0.000000e+00
     vertex  7.370396e+00  8.475570e+00  2.000000e+00
   endloop
 endfacet
 facet normal  7.030118e-01  7.111781e-01 -0.000000e+00
   outer loop
     vertex  7.777060e+00  8.060382e+00  0.000000e+00
     vertex  7.570376e+00  8.264692e+00  2.000000e+00
     vertex  7.777060e+00  8.060382e+00  2.000000e+00
   endloop
 endfacet
 facet normal  7.030118e-01  7.111781e-01  0.000000e+00
   outer loop
     vertex  7.777060e+00  8.060382e+00  0.000000e+00
     vertex  7.570376e+00  8.264692e+00  0.000000e+00
     vertex  7.570376e+00  8.264692e+00  2.000000e+00
   endloop
 endfacet
 facet normal  6.796834e-01  7.335056e-01 -0.000000e+00
   outer loop
     vertex  7.990233e+00  7.862850e+00  0.000000e+00
     vertex  7.777060e+00  8.060382e+00  2.000000e+00
     vertex  7.990233e+00  7.862850e+00  2.000000e+00
   endloop
 endfacet
 facet normal  6.796834e-01  7.335056e-01  0.000000e+00
   outer loop
     vertex  7.990233e+00  7.862850e+00  0.000000e+00
     vertex  7.777060e+00  8.060382e+00  0.000000e+00
     vertex  7.777060e+00  8.060382e+00  2.000000e+00
   endloop
 endfacet
 facet normal  6.556462e-01  7.550682e-01 -0.000000e+00
   outer loop
     vertex  8.209673e+00  7.672305e+00  0.000000e+00
     vertex  7.990233e+00  7.862850e+00  2.000000e+00
     vertex  8.209673e+00  7.672305e+00  2.000000e+00
   endloop
 endfacet
 facet normal  6.556462e-01  7.550682e-01  0.000000e+00
   outer loop
     vertex  8.209673e+00  7.672305e+00  0.000000e+00
     vertex  7.990233e+00  7.862850e+00  0.000000e+00
     vertex  7.990233e+00  7.862850e+00  2.000000e+00
   endloop
 endfacet
 facet normal  6.309254e-01  7.758435e-01  0.000000e+00
   outer loop
     vertex  8.435150e+00  7.488944e+00  0.000000e+00
     vertex  8.209673e+00  7.672305e+00  0.000000e+00
     vertex  8.209673e+00  7.672305e+00  2.000000e+00
   endloop
 endfacet
 facet normal  6.309254e-01  7.758435e-01 -0.000000e+00
   outer loop
     vertex  8.435150e+00  7.488944e+00  0.000000e+00
     vertex  8.209673e+00  7.672305e+00  2.000000e+00
     vertex  8.435150e+00  7.488944e+00  2.000000e+00
   endloop
 endfacet
 facet normal  6.055467e-01  7.958098e-01  0.000000e+00
   outer loop
     vertex  8.666430e+00  7.312959e+00  0.000000e+00
     vertex  8.435150e+00  7.488944e+00  0.000000e+00
     vertex  8.435150e+00  7.488944e+00  2.000000e+00
   endloop
 endfacet
 facet normal  6.055467e-01  7.958098e-01 -0.000000e+00
   outer loop
     vertex  8.666430e+00  7.312959e+00  0.000000e+00
     vertex  8.435150e+00  7.488944e+00  2.000000e+00
     vertex  8.666430e+00  7.312959e+00  2.000000e+00
   endloop
 endfacet
 facet normal  5.795365e-01  8.149463e-01  0.000000e+00
   outer loop
     vertex  8.903272e+00  7.144533e+00  0.000000e+00
     vertex  8.666430e+00  7.312959e+00  0.000000e+00
     vertex  8.666430e+00  7.312959e+00  2.000000e+00
   endloop
 endfacet
 facet normal  5.795365e-01  8.149463e-01 -0.000000e+00
   outer loop
     vertex  8.903272e+00  7.144533e+00  0.000000e+00
     vertex  8.666430e+00  7.312959e+00  2.000000e+00
     vertex  8.903272e+00  7.144533e+00  2.000000e+00
   endloop
 endfacet
 facet normal  5.529221e-01  8.332329e-01  0.000000e+00
   outer loop
     vertex  9.145428e+00  6.983841e+00  0.000000e+00
     vertex  8.903272e+00  7.144533e+00  0.000000e+00
     vertex  8.903272e+00  7.144533e+00  2.000000e+00
   endloop
 endfacet
 facet normal  5.529221e-01  8.332329e-01 -0.000000e+00
   outer loop
     vertex  9.145428e+00  6.983841e+00  0.000000e+00
     vertex  8.903272e+00  7.144533e+00  2.000000e+00
     vertex  9.145428e+00  6.983841e+00  2.000000e+00
   endloop
 endfacet
 facet normal  5.257311e-01  8.506508e-01  0.000000e+00
   outer loop
     vertex  9.392646e+00  6.831052e+00  0.000000e+00
     vertex  9.145428e+00  6.983841e+00  0.000000e+00
     vertex  9.145428e+00  6.983841e+00  2.000000e+00
   endloop
 endfacet
 facet normal  5.257311e-01  8.506508e-01 -0.000000e+00
   outer loop
     vertex  9.392646e+00  6.831052e+00  0.000000e+00
     vertex  9.145428e+00  6.983841e+00  2.000000e+00
     vertex  9.392646e+00  6.831052e+00  2.000000e+00
   endloop
 endfacet
 facet normal  4.979919e-01  8.671817e-01  0.000000e+00
   outer loop
     vertex  9.644668e+00  6.686324e+00  0.000000e+00
     vertex  9.392646e+00  6.831052e+00  0.000000e+00
     vertex  9.392646e+00  6.831052e+00  2.000000e+00
   endloop
 endfacet
 facet normal  4.697335e-01  8.828083e-01 -0.000000e+00
   outer loop
     vertex  9.644668e+00  6.686324e+00  0.000000e+00
     vertex  9.644668e+00  6.686324e+00  2.000000e+00
     vertex  9.901232e+00  6.549809e+00  2.000000e+00
   endloop
 endfacet
 facet normal  4.979919e-01  8.671817e-01 -0.000000e+00
   outer loop
     vertex  9.644668e+00  6.686324e+00  0.000000e+00
     vertex  9.392646e+00  6.831052e+00  2.000000e+00
     vertex  9.644668e+00  6.686324e+00  2.000000e+00
   endloop
 endfacet
 facet normal  4.697335e-01  8.828083e-01 -0.000000e+00
   outer loop
     vertex  9.901232e+00  6.549809e+00  0.000000e+00
     vertex  9.644668e+00  6.686324e+00  0.000000e+00
     vertex  9.901232e+00  6.549809e+00  2.000000e+00
   endloop
 endfacet
 facet normal  4.409852e-01  8.975144e-01  0.000000e+00
   outer loop
     vertex  1.016207e+01  6.421649e+00  0.000000e+00
     vertex  9.901232e+00  6.549809e+00  0.000000e+00
     vertex  9.901232e+00  6.549809e+00  2.000000e+00
   endloop
 endfacet
 facet normal  4.409852e-01  8.975144e-01 -0.000000e+00
   outer loop
     vertex  1.016207e+01  6.421649e+00  0.000000e+00
     vertex  9.901232e+00  6.549809e+00  2.000000e+00
     vertex  1.016207e+01  6.421649e+00  2.000000e+00
   endloop
 endfacet
 facet normal  4.117771e-01  9.112846e-01  0.000000e+00
   outer loop
     vertex  1.042691e+01  6.301978e+00  0.000000e+00
     vertex  1.016207e+01  6.421649e+00  0.000000e+00
     vertex  1.016207e+01  6.421649e+00  2.000000e+00
   endloop
 endfacet
 facet normal  3.821396e-01  9.241046e-01 -0.000000e+00
   outer loop
     vertex  1.042691e+01  6.301978e+00  0.000000e+00
     vertex  1.042691e+01  6.301978e+00  2.000000e+00
     vertex  1.069547e+01  6.190920e+00  2.000000e+00
   endloop
 endfacet
 facet normal  4.117771e-01  9.112846e-01 -0.000000e+00
   outer loop
     vertex  1.042691e+01  6.301978e+00  0.000000e+00
     vertex  1.016207e+01  6.421649e+00  2.000000e+00
     vertex  1.042691e+01  6.301978e+00  2.000000e+00
   endloop
 endfacet
 facet normal  3.821396e-01  9.241046e-01 -0.000000e+00
   outer loop
     vertex  1.069547e+01  6.190920e+00  0.000000e+00
     vertex  1.042691e+01  6.301978e+00  0.000000e+00
     vertex  1.069547e+01  6.190920e+00  2.000000e+00
   endloop
 endfacet
 facet normal  3.521037e-01  9.359610e-01  0.000000e+00
   outer loop
     vertex  1.096749e+01  6.088590e+00  0.000000e+00
     vertex  1.069547e+01  6.190920e+00  0.000000e+00
     vertex  1.069547e+01  6.190920e+00  2.000000e+00
   endloop
 endfacet
 facet normal  3.521037e-01  9.359610e-01 -0.000000e+00
   outer loop
     vertex  1.096749e+01  6.088590e+00  0.000000e+00
     vertex  1.069547e+01  6.190920e+00  2.000000e+00
     vertex  1.096749e+01  6.088590e+00  2.000000e+00
   endloop
 endfacet
 facet normal  3.217006e-01  9.468414e-01  0.000000e+00
   outer loop
     vertex  1.124266e+01  5.995097e+00  0.000000e+00
     vertex  1.096749e+01  6.088590e+00  0.000000e+00
     vertex  1.096749e+01  6.088590e+00  2.000000e+00
   endloop
 endfacet
 facet normal  3.217006e-01  9.468414e-01 -0.000000e+00
   outer loop
     vertex  1.124266e+01  5.995097e+00  0.000000e+00
     vertex  1.096749e+01  6.088590e+00  2.000000e+00
     vertex  1.124266e+01  5.995097e+00  2.000000e+00
   endloop
 endfacet
 facet normal  2.599202e-01  9.656301e-01 -0.000000e+00
   outer loop
     vertex  1.152071e+01  5.910537e+00  0.000000e+00
     vertex  1.152071e+01  5.910537e+00  2.000000e+00
     vertex  1.180134e+01  5.834998e+00  2.000000e+00
   endloop
 endfacet
 facet normal  2.909621e-01  9.567346e-01 -0.000000e+00
   outer loop
     vertex  1.152071e+01  5.910537e+00  0.000000e+00
     vertex  1.124266e+01  5.995097e+00  2.000000e+00
     vertex  1.152071e+01  5.910537e+00  2.000000e+00
   endloop
 endfacet
 facet normal  2.909621e-01  9.567346e-01  0.000000e+00
   outer loop
     vertex  1.152071e+01  5.910537e+00  0.000000e+00
     vertex  1.124266e+01  5.995097e+00  0.000000e+00
     vertex  1.124266e+01  5.995097e+00  2.000000e+00
   endloop
 endfacet
 facet normal  2.286072e-01  9.735187e-01 -0.000000e+00
   outer loop
     vertex  1.180134e+01  5.834998e+00  0.000000e+00
     vertex  1.180134e+01  5.834998e+00  2.000000e+00
     vertex  1.208427e+01  5.768560e+00  2.000000e+00
   endloop
 endfacet
 facet normal  2.599202e-01  9.656301e-01 -0.000000e+00
   outer loop
     vertex  1.180134e+01  5.834998e+00  0.000000e+00
     vertex  1.152071e+01  5.910537e+00  0.000000e+00
     vertex  1.180134e+01  5.834998e+00  2.000000e+00
   endloop
 endfacet
 facet normal  2.286072e-01  9.735187e-01 -0.000000e+00
   outer loop
     vertex  1.208427e+01  5.768560e+00  0.000000e+00
     vertex  1.180134e+01  5.834998e+00  0.000000e+00
     vertex  1.208427e+01  5.768560e+00  2.000000e+00
   endloop
 endfacet
 facet normal  1.970559e-01  9.803923e-01  0.000000e+00
   outer loop
     vertex  1.236919e+01  5.711291e+00  0.000000e+00
     vertex  1.208427e+01  5.768560e+00  0.000000e+00
     vertex  1.208427e+01  5.768560e+00  2.000000e+00
   endloop
 endfacet
 facet normal  1.652991e-01  9.862435e-01 -0.000000e+00
   outer loop
     vertex  1.236919e+01  5.711291e+00  0.000000e+00
     vertex  1.236919e+01  5.711291e+00  2.000000e+00
     vertex  1.265581e+01  5.663252e+00  2.000000e+00
   endloop
 endfacet
 facet normal  1.970559e-01  9.803923e-01 -0.000000e+00
   outer loop
     vertex  1.236919e+01  5.711291e+00  0.000000e+00
     vertex  1.208427e+01  5.768560e+00  2.000000e+00
     vertex  1.236919e+01  5.711291e+00  2.000000e+00
   endloop
 endfacet
 facet normal  1.652991e-01  9.862435e-01 -0.000000e+00
   outer loop
     vertex  1.265581e+01  5.663252e+00  0.000000e+00
     vertex  1.236919e+01  5.711291e+00  0.000000e+00
     vertex  1.265581e+01  5.663252e+00  2.000000e+00
   endloop
 endfacet
 facet normal  1.333699e-01  9.910663e-01  0.000000e+00
   outer loop
     vertex  1.294384e+01  5.624491e+00  0.000000e+00
     vertex  1.265581e+01  5.663252e+00  0.000000e+00
     vertex  1.265581e+01  5.663252e+00  2.000000e+00
   endloop
 endfacet
 facet normal  1.333699e-01  9.910663e-01 -0.000000e+00
   outer loop
     vertex  1.294384e+01  5.624491e+00  0.000000e+00
     vertex  1.265581e+01  5.663252e+00  2.000000e+00
     vertex  1.294384e+01  5.624491e+00  2.000000e+00
   endloop
 endfacet
 facet normal  1.013016e-01  9.948558e-01  0.000000e+00
   outer loop
     vertex  1.323297e+01  5.595051e+00  0.000000e+00
     vertex  1.294384e+01  5.624491e+00  0.000000e+00
     vertex  1.294384e+01  5.624491e+00  2.000000e+00
   endloop
 endfacet
 facet normal  1.013016e-01  9.948558e-01 -0.000000e+00
   outer loop
     vertex  1.323297e+01  5.595051e+00  0.000000e+00
     vertex  1.294384e+01  5.624491e+00  2.000000e+00
     vertex  1.323297e+01  5.595051e+00  2.000000e+00
   endloop
 endfacet
 facet normal  6.912777e-02  9.976078e-01  0.000000e+00
   outer loop
     vertex  1.352289e+01  5.574961e+00  0.000000e+00
     vertex  1.323297e+01  5.595051e+00  0.000000e+00
     vertex  1.323297e+01  5.595051e+00  2.000000e+00
   endloop
 endfacet
 facet normal  6.912777e-02  9.976078e-01 -0.000000e+00
   outer loop
     vertex  1.352289e+01  5.574961e+00  0.000000e+00
     vertex  1.323297e+01  5.595051e+00  2.000000e+00
     vertex  1.352289e+01  5.574961e+00  2.000000e+00
   endloop
 endfacet
 facet normal  3.688182e-02  9.993196e-01  0.000000e+00
   outer loop
     vertex  1.381332e+01  5.564242e+00  0.000000e+00
     vertex  1.352289e+01  5.574961e+00  0.000000e+00
     vertex  1.352289e+01  5.574961e+00  2.000000e+00
   endloop
 endfacet
 facet normal  3.688182e-02  9.993196e-01 -0.000000e+00
   outer loop
     vertex  1.381332e+01  5.564242e+00  0.000000e+00
     vertex  1.352289e+01  5.574961e+00  2.000000e+00
     vertex  1.381332e+01  5.564242e+00  2.000000e+00
   endloop
 endfacet
 facet normal  4.597408e-03  9.999894e-01  0.000000e+00
   outer loop
     vertex  1.410394e+01  5.562906e+00  0.000000e+00
     vertex  1.381332e+01  5.564242e+00  0.000000e+00
     vertex  1.381332e+01  5.564242e+00  2.000000e+00
   endloop
 endfacet
 facet normal  4.597408e-03  9.999894e-01 -0.000000e+00
   outer loop
     vertex  1.410394e+01  5.562906e+00  0.000000e+00
     vertex  1.381332e+01  5.564242e+00  2.000000e+00
     vertex  1.410394e+01  5.562906e+00  2.000000e+00
   endloop
 endfacet
 facet normal -2.769180e-02  9.996165e-01  0.000000e+00
   outer loop
     vertex  1.439445e+01  5.570954e+00  0.000000e+00
     vertex  1.410394e+01  5.562906e+00  0.000000e+00
     vertex  1.410394e+01  5.562906e+00  2.000000e+00
   endloop
 endfacet
 facet normal -5.995213e-02  9.982013e-01  0.000000e+00
   outer loop
     vertex  1.439445e+01  5.570954e+00  0.000000e+00
     vertex  1.439445e+01  5.570954e+00  2.000000e+00
     vertex  1.468455e+01  5.588377e+00  2.000000e+00
   endloop
 endfacet
 facet normal -2.769180e-02  9.996165e-01  0.000000e+00
   outer loop
     vertex  1.439445e+01  5.570954e+00  0.000000e+00
     vertex  1.410394e+01  5.562906e+00  2.000000e+00
     vertex  1.439445e+01  5.570954e+00  2.000000e+00
   endloop
 endfacet
 facet normal -5.995213e-02  9.982013e-01  0.000000e+00
   outer loop
     vertex  1.468455e+01  5.588377e+00  0.000000e+00
     vertex  1.439445e+01  5.570954e+00  0.000000e+00
     vertex  1.468455e+01  5.588377e+00  2.000000e+00
   endloop
 endfacet
 facet normal -9.214994e-02  9.957451e-01  0.000000e+00
   outer loop
     vertex  1.497393e+01  5.615158e+00  0.000000e+00
     vertex  1.468455e+01  5.588377e+00  0.000000e+00
     vertex  1.468455e+01  5.588377e+00  2.000000e+00
   endloop
 endfacet
 facet normal -9.214994e-02  9.957451e-01  0.000000e+00
   outer loop
     vertex  1.497393e+01  5.615158e+00  0.000000e+00
     vertex  1.468455e+01  5.588377e+00  2.000000e+00
     vertex  1.497393e+01  5.615158e+00  2.000000e+00
   endloop
 endfacet
 facet normal -1.242517e-01  9.922507e-01  0.000000e+00
   outer loop
     vertex  1.526230e+01  5.651268e+00  0.000000e+00
     vertex  1.497393e+01  5.615158e+00  0.000000e+00
     vertex  1.497393e+01  5.615158e+00  2.000000e+00
   endloop
 endfacet
 facet normal -1.562238e-01  9.877217e-01  0.000000e+00
   outer loop
     vertex  1.526230e+01  5.651268e+00  0.000000e+00
     vertex  1.526230e+01  5.651268e+00  2.000000e+00
     vertex  1.554936e+01  5.696671e+00  2.000000e+00
   endloop
 endfacet
 facet normal -1.242517e-01  9.922507e-01  0.000000e+00
   outer loop
     vertex  1.526230e+01  5.651268e+00  0.000000e+00
     vertex  1.497393e+01  5.615158e+00  2.000000e+00
     vertex  1.526230e+01  5.651268e+00  2.000000e+00
   endloop
 endfacet
 facet normal -1.562238e-01  9.877217e-01  0.000000e+00
   outer loop
     vertex  1.554936e+01  5.696671e+00  0.000000e+00
     vertex  1.526230e+01  5.651268e+00  0.000000e+00
     vertex  1.554936e+01  5.696671e+00  2.000000e+00
   endloop
 endfacet
 facet normal -1.880331e-01  9.821627e-01  0.000000e+00
   outer loop
     vertex  1.583480e+01  5.751317e+00  0.000000e+00
     vertex  1.554936e+01  5.696671e+00  0.000000e+00
     vertex  1.554936e+01  5.696671e+00  2.000000e+00
   endloop
 endfacet
 facet normal -1.880331e-01  9.821627e-01  0.000000e+00
   outer loop
     vertex  1.583480e+01  5.751317e+00  0.000000e+00
     vertex  1.554936e+01  5.696671e+00  2.000000e+00
     vertex  1.583480e+01  5.751317e+00  2.000000e+00
   endloop
 endfacet
 facet normal -2.196463e-01  9.755796e-01  0.000000e+00
   outer loop
     vertex  1.611832e+01  5.815151e+00  0.000000e+00
     vertex  1.583480e+01  5.751317e+00  0.000000e+00
     vertex  1.583480e+01  5.751317e+00  2.000000e+00
   endloop
 endfacet
 facet normal -2.510305e-01  9.679792e-01  0.000000e+00
   outer loop
     vertex  1.611832e+01  5.815151e+00  0.000000e+00
     vertex  1.611832e+01  5.815151e+00  2.000000e+00
     vertex  1.639964e+01  5.888106e+00  2.000000e+00
   endloop
 endfacet
 facet normal -2.196463e-01  9.755796e-01  0.000000e+00
   outer loop
     vertex  1.611832e+01  5.815151e+00  0.000000e+00
     vertex  1.583480e+01  5.751317e+00  2.000000e+00
     vertex  1.611832e+01  5.815151e+00  2.000000e+00
   endloop
 endfacet
 facet normal -2.510305e-01  9.679792e-01  0.000000e+00
   outer loop
     vertex  1.639964e+01  5.888106e+00  0.000000e+00
     vertex  1.611832e+01  5.815151e+00  0.000000e+00
     vertex  1.639964e+01  5.888106e+00  2.000000e+00
   endloop
 endfacet
 facet normal -2.821529e-01  9.593695e-01  0.000000e+00
   outer loop
     vertex  1.667845e+01  5.970106e+00  0.000000e+00
     vertex  1.639964e+01  5.888106e+00  0.000000e+00
     vertex  1.639964e+01  5.888106e+00  2.000000e+00
   endloop
 endfacet
 facet normal -2.821529e-01  9.593695e-01  0.000000e+00
   outer loop
     vertex  1.667845e+01  5.970106e+00  0.000000e+00
     vertex  1.639964e+01  5.888106e+00  2.000000e+00
     vertex  1.667845e+01  5.970106e+00  2.000000e+00
   endloop
 endfacet
 facet normal -3.129811e-01  9.497594e-01  0.000000e+00
   outer loop
     vertex  1.695447e+01  6.061065e+00  0.000000e+00
     vertex  1.667845e+01  5.970106e+00  0.000000e+00
     vertex  1.667845e+01  5.970106e+00  2.000000e+00
   endloop
 endfacet
 facet normal -3.434829e-01  9.391589e-01  0.000000e+00
   outer loop
     vertex  1.695447e+01  6.061065e+00  0.000000e+00
     vertex  1.695447e+01  6.061065e+00  2.000000e+00
     vertex  1.722741e+01  6.160889e+00  2.000000e+00
   endloop
 endfacet
 facet normal -3.129811e-01  9.497594e-01  0.000000e+00
   outer loop
     vertex  1.695447e+01  6.061065e+00  0.000000e+00
     vertex  1.667845e+01  5.970106e+00  2.000000e+00
     vertex  1.695447e+01  6.061065e+00  2.000000e+00
   endloop
 endfacet
 facet normal -3.434829e-01  9.391589e-01  0.000000e+00
   outer loop
     vertex  1.722741e+01  6.160889e+00  0.000000e+00
     vertex  1.695447e+01  6.061065e+00  0.000000e+00
     vertex  1.722741e+01  6.160889e+00  2.000000e+00
   endloop
 endfacet
 facet normal -4.033807e-01  9.150322e-01  0.000000e+00
   outer loop
     vertex  1.749699e+01  6.269473e+00  0.000000e+00
     vertex  1.749699e+01  6.269473e+00  2.000000e+00
     vertex  1.776292e+01  6.386705e+00  2.000000e+00
   endloop
 endfacet
 facet normal -3.736266e-01  9.275792e-01  0.000000e+00
   outer loop
     vertex  1.749699e+01  6.269473e+00  0.000000e+00
     vertex  1.722741e+01  6.160889e+00  2.000000e+00
     vertex  1.749699e+01  6.269473e+00  2.000000e+00
   endloop
 endfacet
 facet normal -3.736266e-01  9.275792e-01  0.000000e+00
   outer loop
     vertex  1.749699e+01  6.269473e+00  0.000000e+00
     vertex  1.722741e+01  6.160889e+00  0.000000e+00
     vertex  1.722741e+01  6.160889e+00  2.000000e+00
   endloop
 endfacet
 facet normal -4.327142e-01  9.015312e-01  0.000000e+00
   outer loop
     vertex  1.776292e+01  6.386705e+00  0.000000e+00
     vertex  1.776292e+01  6.386705e+00  2.000000e+00
     vertex  1.802492e+01  6.512461e+00  2.000000e+00
   endloop
 endfacet
 facet normal -4.033807e-01  9.150322e-01  0.000000e+00
   outer loop
     vertex  1.776292e+01  6.386705e+00  0.000000e+00
     vertex  1.749699e+01  6.269473e+00  0.000000e+00
     vertex  1.776292e+01  6.386705e+00  2.000000e+00
   endloop
 endfacet
 facet normal -4.327142e-01  9.015312e-01  0.000000e+00
   outer loop
     vertex  1.802492e+01  6.512461e+00  0.000000e+00
     vertex  1.776292e+01  6.386705e+00  0.000000e+00
     vertex  1.802492e+01  6.512461e+00  2.000000e+00
   endloop
 endfacet
 facet normal -4.472136e-01  8.944272e-01  0.000000e+00
   outer loop
     vertex  3.100000e+01  1.300000e+01  2.000000e+00
     vertex  1.802492e+01  6.512461e+00  0.000000e+00
     vertex  1.802492e+01  6.512461e+00  2.000000e+00
   endloop
 endfacet
 facet normal -4.472136e-01  8.944272e-01  0.000000e+00
   outer loop
     vertex  3.100000e+01  1.300000e+01  0.000000e+00
     vertex  1.802492e+01  6.512461e+00  0.000000e+00
     vertex  3.100000e+01  1.300000e+01  2.000000e+00
   endloop
 endfacet
 facet normal  0.000000e+00  1.000000e+00  0.000000e+00
   outer loop
     vertex  6.000000e+01  1.300000e+01  0.000000e+00
     vertex  3.100000e+01  1.300000e+01  0.000000e+00
     vertex  3.100000e+01  1.300000e+01  2.000000e+00
   endloop
 endfacet
 facet normal  0.000000e+00  1.000000e+00 -0.000000e+00
   outer loop
     vertex  6.000000e+01  1.300000e+01  0.000000e+00
     vertex  3.100000e+01  1.300000e+01  2.000000e+00
     vertex  6.000000e+01  1.300000e+01  2.000000e+00
   endloop
 endfacet
endsolid
